<defs>
<font horiz-adv-x="1283" ><font-face
    font-family="playfairdisplaysc-black-italic"
    units-per-em="2048"
    panose-1="0 0 10 0 0 0 0 0 0 0"
    ascent="2216"
    descent="-514"
    alphabetic="0" />
<missing-glyph horiz-adv-x="1151" d="M1028 0H123V1581H1028V0ZM954 1520H197V61H954V1520Z" />
<glyph unicode="&#xd;" glyph-name="CR" horiz-adv-x="0" />
<glyph unicode=" " glyph-name="space" horiz-adv-x="526" />
<glyph unicode="!" glyph-name="exclam" horiz-adv-x="713" d="M309 538T309 701Q309 769 302 908T295 1122Q295 1239 322 1348T415 1529T588 1602Q670 1602 715 1555T760 1413Q760 1309 711 1200T516 840T315 401L279 408Q309 538 309 701ZM74 169T104 218T186
296T303 324Q382 324 423 289T465 184Q465 130 434 81T350 2T234 -29Q155 -29 115 5T74 106Q74 169 104 218Z" />
<glyph unicode="&quot;" glyph-name="quotedbl" horiz-adv-x="930" d="M743 1031T723 1097T692 1201T682 1278Q682 1335 708 1385T783 1465T893 1495Q952 1495 988 1464T1027 1378Q1027 1318 992 1258T884 1103T783 958H754Q743 1031 723 1097ZM337 1031T317 1097T286
1201T276 1278Q276 1335 302 1385T377 1465T487 1495Q546 1495 582 1464T621 1378Q621 1318 586 1258T478 1103T377 958H348Q337 1031 317 1097Z" />
<glyph unicode="#" glyph-name="numbersign" horiz-adv-x="1262" d="M804 547H1098L1077 506H785L647 207H598L736 506H402L264 207H215L353 506H53L72 547H372L531 889H231L248 930H550L690 1233H739L599 930H933L1073 1233H1122L982 930H1274L1257 889H963L804
547ZM580 889L421 547H755L914 889H580Z" />
<glyph unicode="$" glyph-name="dollar" horiz-adv-x="1329" d="M1092 1439T1184 1384Q1337 1293 1337 1128Q1337 1059 1315 1004T1252 917T1157 885Q1079 885 1031 940T983 1085Q983 1164 1014 1235T1090 1374Q1046 1401 982 1416L843 915Q966 809 1032 745T1148
597T1198 426Q1198 259 1102 159T867 16T581 -29L514 -270H469L536 -29Q468 -28 411 -20L342 -270H297L368 -13Q261 8 164 66Q10 157 10 322Q10 391 32 446T95 533T190 565Q269 565 317 510T365 365Q365 286 334 215T258 76Q308 45 380 30L532 577Q444 659 385
725T287 866T248 1022Q248 1188 329 1290T531 1435T783 1479L850 1720H895L828 1478Q896 1477 952 1468L1022 1720H1067L995 1460Q1092 1439 1184 1384ZM885 1432T819 1432H815L707 1042Q744 1002 807 947L940 1424Q885 1432 819 1432ZM693 1416T646 1369T598 1245Q598
1170 672 1080L769 1428Q693 1416 646 1369ZM469 18T522 18H549L669 449Q636 482 568 544L424 24Q469 18 522 18ZM710 33T756 83T803 219Q803 302 704 412L595 21Q710 33 756 83Z" />
<glyph unicode="%" glyph-name="percent" horiz-adv-x="1671" d="M28 -86L1734 1688L1765 1661L59 -113L28 -86ZM229 1249T293 1344T468 1499T715 1559Q850 1559 927 1492T1004 1305Q1004 1207 941 1112T766 957T520 897Q384 897 307 963T229 1151Q229 1249 293
1344ZM635 1532T588 1452T515 1259T489 1051Q489 991 501 958T535 924Q598 924 645 1004T718 1198T743 1407Q743 1466 732 1499T698 1532Q635 1532 588 1452ZM758 323T822 418T997 573T1243 633Q1378 633 1455 566T1532 379Q1532 281 1469 186T1294 31T1049 -29Q912
-29 835 37T758 225Q758 323 822 418ZM1164 606T1117 526T1044 333T1018 125Q1018 65 1029 32T1063 -2Q1126 -2 1173 78T1246 272T1272 481Q1272 539 1260 572T1227 606Q1164 606 1117 526Z" />
<glyph unicode="&amp;" glyph-name="ampersand" horiz-adv-x="1831" d="M1172 390T1137 354T1049 293T928 268Q860 268 801 294T704 378T666 522Q666 652 758 748T1036 901Q1158 938 1294 978T1579 1065Q1672 1093 1721 1113T1812 1173T1853 1278Q1853 1329 1826
1367T1753 1424T1651 1444Q1618 1444 1595 1436Q1714 1390 1714 1288Q1714 1236 1683 1198T1603 1139T1499 1118Q1446 1118 1404 1138T1337 1195T1313 1278Q1313 1339 1351 1382T1456 1450Q1526 1479 1634 1479Q1927 1479 1927 1180Q1927 1051 1873 963T1716 815T1452
707Q1499 630 1499 530Q1499 397 1413 268T1151 55T719 -29Q527 -29 375 22T135 177T47 432Q47 571 122 686T338 883T672 999Q567 1027 517 1080T467 1202Q467 1278 523 1331T669 1411T862 1438Q995 1438 1059 1396T1124 1282Q1124 1238 1102 1208T1045 1162T977
1147L975 1184Q1018 1184 1047 1211T1077 1276Q1077 1312 1047 1334T965 1356Q898 1356 836 1321T734 1220T694 1073Q694 1042 700 1012Q775 1024 829 1024Q903 1024 903 981Q903 959 885 949T840 938Q791 938 698 983Q640 957 592 891T515 735T487 547Q487 358
597 261T918 164Q1054 164 1176 204T1377 329T1456 545Q1456 633 1418 696Q1290 657 1182 625T985 565Q893 538 851 501T809 410Q809 356 845 334T936 311Q1016 311 1073 352T1153 442L1188 428Q1172 390 1137 354Z" />
<glyph unicode="&apos;" glyph-name="quotesingle" horiz-adv-x="524" d="M337 1031T317 1097T286 1201T276 1278Q276 1335 302 1385T377 1465T487 1495Q546 1495 582 1464T621 1378Q621 1318 586 1258T478 1103T377 958H348Q337 1031 317 1097Z" />
<glyph unicode="(" glyph-name="parenleft" horiz-adv-x="860" d="M385 -245T284 -124T127 140T70 457Q70 679 200 900T558 1315T1080 1651L1100 1624Q887 1463 741 1283T513 875T432 363Q432 166 466 5T576 -346L539 -373Q385 -245 284 -124Z" />
<glyph unicode=")" glyph-name="parenright" horiz-adv-x="862" d="M496 1523T597 1402T754 1138T811 821Q811 599 681 378T323 -37T-199 -373L-219 -346Q-6 -185 140 -5T368 403T449 915Q449 1112 415 1273T305 1624L342 1651Q496 1523 597 1402Z" />
<glyph unicode="*" glyph-name="asterisk" horiz-adv-x="977" d="M1042 1257T1042 1236Q1042 1163 958 1122Q923 1104 879 1096T754 1078T628 1062Q667 1056 745 1046T864 1027T928 1001Q967 976 967 935Q967 894 928 846Q878 783 820 783Q790 783 764 801Q738
819 718 851T665 947T614 1044Q620 1006 629 954T644 863T650 795Q650 764 643 739Q629 682 589 656T502 629Q460 629 434 647T407 704Q407 717 412 739Q421 775 445 816T518 930T595 1045Q558 1010 493 945T392 848T324 799Q287 781 259 781Q229 781 209 799T180
844Q173 862 173 885Q173 958 256 999Q292 1017 337 1025T463 1043T592 1059Q552 1065 472 1075T352 1094T287 1120Q248 1145 248 1187Q248 1230 287 1276Q337 1339 395 1339Q425 1339 451 1321Q478 1303 498 1270T551 1173T602 1073Q597 1114 587 1168T571 1260T565
1328Q565 1356 571 1382Q586 1439 626 1466T715 1493Q755 1493 781 1474T807 1416Q807 1398 803 1382Q794 1348 771 1309T699 1197T622 1080Q657 1113 721 1177T822 1274T891 1323Q929 1341 956 1341Q986 1341 1006 1324T1034 1278Q1042 1257 1042 1236Z" />
<glyph unicode="+" glyph-name="plus" horiz-adv-x="1165" d="M727 1241H801L664 758H1139L1120 696H645L508 215H434L571 696H94L113 758H590L727 1241Z" />
<glyph unicode="," glyph-name="comma" horiz-adv-x="635" d="M166 -208T230 -133T301 35Q240 -29 158 -29Q81 -29 40 5T-2 106Q-2 169 28 218T110 296T227 324Q393 324 393 156Q393 12 311 -104T86 -283L76 -246Q166 -208 230 -133Z" />
<glyph unicode="-" glyph-name="hyphen" horiz-adv-x="1038" d="M848 455H109L164 657H903L848 455Z" />
<glyph unicode="." glyph-name="period" horiz-adv-x="618" d="M-2 169T28 218T110 296T227 324Q306 324 347 289T389 184Q389 130 358 81T274 2T158 -29Q79 -29 39 5T-2 106Q-2 169 28 218Z" />
<glyph unicode="/" glyph-name="slash" horiz-adv-x="934" d="M1094 1479L-29 -29H-96L1026 1479H1094Z" />
<glyph unicode="0" glyph-name="zero" horiz-adv-x="1350" d="M955 1092T1058 1046T1216 913T1272 711Q1272 528 1165 357T879 78T496 -29Q357 -29 254 17T95 150T39 352Q39 535 145 706T431 985T815 1092Q955 1092 1058 1046ZM674 1055T589 941T458 651T412 297Q412
153 443 81T524 8Q636 8 721 122T853 413T899 766Q899 911 868 983T786 1055Q674 1055 589 941Z" />
<glyph unicode="1" glyph-name="one" horiz-adv-x="801" d="M82 0L336 850Q268 829 86 791L92 834Q245 867 361 908T559 990T729 1085H770L444 0H82Z" />
<glyph unicode="2" glyph-name="two" horiz-adv-x="1139" d="M450 623T391 599T276 575Q213 575 168 606T123 715Q123 807 192 894T386 1036T672 1092Q783 1092 864 1064T990 985T1034 868Q1034 748 912 653T603 458T362 322Q403 322 475 304T594 275T698 264Q786
264 841 289T897 362Q897 416 831 453L852 479Q914 444 940 401T967 297Q967 217 929 147T809 32T606 -12Q537 -12 450 7T299 38T162 50Q99 50 55 39T-55 0L-45 43Q-21 63 183 216T533 544T680 868Q680 948 638 987T524 1026Q441 1026 359 981T225 863T172 717Q172
667 199 643T289 618Q344 618 386 638T479 702L504 674Q450 623 391 599Z" />
<glyph unicode="3" glyph-name="three" horiz-adv-x="1104" d="M371 637T287 637Q224 637 179 668T133 776Q133 851 201 924T386 1045T643 1092Q757 1092 842 1066T972 993T1018 885Q1018 793 942 718T751 591T512 512Q710 509 826 447T942 248Q942 90 761 -36T314
-234T-186 -309L-176 -272Q-5 -261 166 -193T452 0T567 293Q567 375 543 425T475 479Q427 460 403 452T356 444Q320 444 320 465Q320 467 322 475Q330 513 419 513Q445 513 459 512Q559 558 619 636T680 821Q680 908 626 957T473 1006Q400 1006 333 973T224 887T182
778Q182 728 210 704T301 680Q370 680 428 711L451 680Q371 637 287 637Z" />
<glyph unicode="4" glyph-name="four" horiz-adv-x="1124" d="M715 111L608 -289H246L354 111H-127L-115 154L926 1092H979L727 154H989L977 111H715ZM501 654L-54 154H366L501 654Z" />
<glyph unicode="5" glyph-name="five" horiz-adv-x="983" d="M862 933T781 847T596 760Q566 760 533 769T427 805T312 832Q299 832 293 831L129 461Q262 535 465 535Q840 535 840 285Q840 112 674 -20T267 -225T-190 -303L-180 -266Q-36 -266 113 -198T362 -6T461
281Q461 376 420 424T285 473Q197 473 100 418L80 428L348 1061Q389 1063 426 1057T544 1031T690 1010Q762 1010 810 1030T893 1102L918 1087Q862 933 781 847Z" />
<glyph unicode="6" glyph-name="six" horiz-adv-x="1214" d="M977 1384T806 1222T526 804T416 231Q416 145 424 98T450 31T496 12Q568 12 630 112T730 355T768 612Q768 700 746 738T688 776Q646 776 605 730T539 590L504 600Q545 757 628 827T834 897Q924 897
994 862T1104 757T1145 586Q1145 428 1048 286T787 58T432 -29Q45 -29 45 354Q45 629 225 874T666 1281T1147 1479L1159 1438Q977 1384 806 1222Z" />
<glyph unicode="7" glyph-name="seven" horiz-adv-x="1053" d="M958 807T853 675T677 395T549 25Q527 -65 523 -93T516 -137Q502 -210 446 -256T295 -303Q134 -303 134 -156Q134 -115 147 -66Q197 117 371 307T774 701T1070 970Q1014 934 902 859T727 757T592
729Q547 729 512 738T414 772T299 797Q241 797 205 770T168 686Q168 615 227 569T391 498L381 463Q78 525 78 762Q78 843 113 913T226 1028T420 1073Q510 1073 618 1044T794 999T955 983Q1011 983 1053 999T1128 1061H1188Q958 807 853 675Z" />
<glyph unicode="8" glyph-name="eight" horiz-adv-x="1219" d="M1262 1046T809 844Q831 825 911 756T1033 612T1075 451Q1075 317 982 207T734 34T408 -29Q287 -29 190 0T35 90T-23 242Q-23 389 131 514T514 725Q446 788 406 833T339 937T311 1067Q311 1187 390
1281T602 1427T885 1479Q1052 1479 1157 1423T1262 1257Q1262 1046 809 844ZM839 947T875 1055T911 1278Q911 1442 825 1442Q778 1442 734 1400T661 1292T633 1155Q633 1070 671 1004T780 871Q839 947 875 1055ZM529 8T592 57T694 185T733 352Q733 426 707 487T641
596T538 702Q451 619 397 487T342 207Q342 111 370 60T463 8Q529 8 592 57Z" />
<glyph unicode="9" glyph-name="nine" horiz-adv-x="1192" d="M624 306T541 236T336 166Q246 166 176 201T66 306T25 477Q25 635 121 777T382 1005T737 1092Q1124 1092 1124 709Q1124 443 947 204T514 -194T43 -385L31 -344Q207 -293 374 -134T647 275T754 831Q754
917 745 965T719 1032T674 1051Q602 1051 539 951T439 709T401 451Q401 363 423 325T481 287Q523 287 564 333T631 473L666 463Q624 306 541 236Z" />
<glyph unicode=":" glyph-name="colon" horiz-adv-x="682" d="M25 169T55 218T137 296T254 324Q333 324 374 289T416 184Q416 130 385 81T301 2T185 -29Q106 -29 66 5T25 106Q25 169 55 218ZM229 937T259 986T341 1064T458 1092Q537 1092 578 1057T620 952Q620
898 589 849T505 770T389 739Q310 739 270 773T229 874Q229 937 259 986Z" />
<glyph unicode=";" glyph-name="semicolon" horiz-adv-x="692" d="M246 937T276 986T358 1064T475 1092Q554 1092 595 1057T637 952Q637 898 606 849T522 770T406 739Q327 739 287 773T246 874Q246 937 276 986ZM180 -208T244 -133T315 35Q254 -29 172 -29Q95
-29 54 5T12 106Q12 169 42 218T124 296T241 324Q407 324 407 156Q407 12 325 -104T100 -283L90 -246Q180 -208 244 -133Z" />
<glyph unicode="&lt;" glyph-name="less" horiz-adv-x="1204" d="M248 719L926 362L893 297L94 727L1225 1192L1245 1133L248 719Z" />
<glyph unicode="=" glyph-name="equal" horiz-adv-x="1313" d="M1247 901L1229 840H203L221 901H1247ZM1165 614L1147 553H121L139 614H1165Z" />
<glyph unicode="&gt;" glyph-name="greater" horiz-adv-x="1210" d="M1034 770L276 1176L309 1235L1188 762L113 317L92 377L1034 770Z" />
<glyph unicode="?" glyph-name="question" horiz-adv-x="1061" d="M507 1550T449 1513Q499 1516 546 1497T622 1439T651 1354Q651 1305 626 1263T558 1196T461 1171Q414 1171 371 1192T301 1252T274 1346Q274 1442 344 1499T517 1579T725 1602Q843 1602 946 1573T1112
1484T1176 1339Q1176 1281 1136 1222T1014 1094T791 922Q651 822 583 761T489 655T463 553Q463 498 498 463T598 428Q672 428 729 457Q676 474 639 516T602 623Q602 670 624 707T685 766T776 788Q816 788 851 769T907 717T928 643Q928 551 863 493T704 409T516
383Q413 383 332 410T202 494T154 633Q154 706 192 769T286 882T455 1024Q478 1042 580 1124T721 1267T760 1389Q760 1463 719 1506T600 1550Q507 1550 449 1513ZM231 169T261 218T343 296T460 324Q539 324 580 289T622 184Q622 130 591 81T507 2T391 -29Q312 -29
272 5T231 106Q231 169 261 218Z" />
<glyph unicode="@" glyph-name="at" horiz-adv-x="1788" d="M1252 -212T1111 -250T807 -289Q607 -289 437 -227T161 -25T55 338Q55 571 173 789T519 1147T1061 1286Q1264 1286 1412 1224T1641 1037T1722 731Q1722 518 1619 364T1365 132T1079 53Q908 53 908 199Q908
215 910 239Q812 53 627 53Q519 53 449 112T379 305Q379 443 455 602T658 870T932 979Q1011 979 1046 944T1085 839L1118 950Q1311 950 1427 979L1210 248Q1197 203 1197 174Q1197 129 1235 129Q1295 129 1402 198T1594 402T1679 729Q1679 903 1602 1019T1387 1192T1061
1249Q764 1249 545 1116T212 773T98 342Q98 136 196 2T454 -193T805 -254Q951 -254 1089 -220T1341 -121L1354 -147Q1252 -212 1111 -250ZM1061 774T1061 796Q1061 891 999 891Q947 891 876 801T752 574T700 299Q700 234 715 205T768 176Q823 176 867 233T954 408L1057
747Q1061 774 1061 796Z" />
<glyph unicode="A" glyph-name="A" horiz-adv-x="1370" d="M1138 105T1167 74T1233 41L1225 0Q1105 6 879 6Q641 6 530 0L539 41Q605 44 642 56T697 99T716 187Q716 204 715 213L697 549H295L96 268Q48 198 48 151Q48 55 236 41L227 0Q16 6 -63 6Q-133 6 -197
0L-188 41Q-148 52 -114 77T-41 150T61 285L897 1460Q930 1456 976 1456Q1022 1456 1051 1460L1133 172Q1138 105 1167 74ZM670 1079L324 590H695L670 1079Z" />
<glyph unicode="B" glyph-name="B" horiz-adv-x="1454" d="M407 1444T637 1444Q720 1444 803 1446T942 1448Q1438 1448 1438 1171Q1438 1061 1363 969T1143 821T799 758Q968 760 1091 721T1278 612T1343 451Q1343 309 1258 208T1011 53T627 0Q581 0 482 3T264
6Q31 6 -98 0L-90 41Q-16 44 20 57T79 105T121 217L391 1233Q409 1300 409 1332Q409 1372 379 1389T270 1409L281 1450Q407 1444 637 1444ZM816 770T889 836T999 1008T1036 1235Q1036 1318 1012 1363T922 1409Q892 1409 874 1397T843 1355T813 1264L683 770H713Q816
770 889 836ZM521 157T521 124Q521 47 602 47Q688 47 758 111T869 279T909 492Q909 599 864 667T713 735H674L537 217Q521 157 521 124Z" />
<glyph unicode="C" glyph-name="C" horiz-adv-x="1450" d="M1505 1273T1442 979H1397Q1417 1097 1417 1156Q1417 1246 1382 1305Q1344 1370 1290 1395T1157 1421Q996 1421 856 1288T631 932T547 457Q547 250 617 150T815 49Q884 49 956 80T1081 168Q1135 226 1175
297T1266 492H1311Q1214 137 1190 0H1145Q1151 44 1151 70Q1151 122 1125 122Q1109 122 1083 104Q891 -29 674 -29Q369 -29 223 107T76 496Q76 742 211 969T585 1337T1114 1479Q1226 1479 1295 1444T1417 1346Q1432 1328 1447 1328Q1485 1328 1530 1450H1573Q1505
1273 1442 979Z" />
<glyph unicode="D" glyph-name="D" horiz-adv-x="1642" d="M442 1443T597 1443L672 1444Q843 1450 975 1450Q1282 1450 1451 1320T1620 936Q1620 714 1514 500T1174 143T584 0Q541 0 451 3T260 6Q35 6 -88 0L-82 41Q-12 44 23 57T81 105T123 217L391 1233Q404
1282 404 1313Q404 1357 375 1381T272 1409L279 1450Q442 1443 597 1443ZM514 120T514 91Q514 61 533 49T600 37Q780 37 916 186T1125 562T1198 1010Q1198 1413 938 1413Q892 1413 873 1401T843 1361T807 1237L539 213Q514 120 514 91Z" />
<glyph unicode="E" glyph-name="E" horiz-adv-x="1305" d="M516 1444T991 1444Q1286 1444 1415 1450Q1365 1321 1337 1208Q1326 1162 1311 1081H1266Q1267 1200 1240 1271T1158 1372T1018 1403H1012Q941 1403 906 1391T849 1345T807 1233L679 750H715Q779 750
838 781T941 865T1008 979H1053Q1027 900 1010 831T983 729Q956 627 930 479H885Q885 533 866 585T803 673T686 709H668L537 217Q519 147 519 117Q519 88 532 73T574 53T653 47H680Q780 47 855 81T996 194T1128 410H1174Q1160 374 1130 262Q1098 145 1077 0Q938
6 614 6Q139 6 -98 0L-90 41Q-16 44 20 57T79 105T121 217L391 1233Q408 1298 408 1331Q408 1362 395 1378T352 1400T270 1409L281 1450Q516 1444 991 1444Z" />
<glyph unicode="F" glyph-name="F" horiz-adv-x="1235" d="M516 1444T991 1444Q1286 1444 1415 1450Q1374 1342 1337 1208Q1301 1078 1290 1020H1245Q1248 1059 1248 1093Q1248 1259 1182 1331T997 1403H991Q927 1403 895 1391T844 1345T807 1233L679 750H735Q827
750 904 811T1028 979H1073Q1035 864 1004 729Q979 630 940 418H895Q895 559 846 634T707 709H668L537 217Q522 160 522 126Q522 92 539 75T592 50T698 41L690 0Q552 6 283 6Q25 6 -98 0L-90 41Q-16 44 20 57T79 105T121 217L391 1233Q408 1298 408 1331Q408 1362
395 1378T352 1400T270 1409L281 1450Q516 1444 991 1444Z" />
<glyph unicode="G" glyph-name="G" horiz-adv-x="1559" d="M1434 1062T1434 1133Q1434 1181 1428 1214T1405 1282Q1366 1359 1286 1400T1090 1442Q904 1442 765 1264T551 834T477 373Q477 190 539 101T729 12Q797 12 836 41Q864 61 878 93T913 205L961 385Q979
453 979 491Q979 527 962 545T910 571T807 582L817 623Q946 616 1206 616Q1440 616 1544 623L1534 582Q1485 578 1461 566T1420 519T1382 406L1274 0H1233Q1234 62 1214 89T1153 117Q1115 117 1074 102T988 65T918 31Q789 -29 655 -29Q471 -29 338 26T133 186T61
440Q61 677 195 919T568 1320T1102 1479Q1186 1479 1247 1462T1351 1417T1438 1346Q1457 1327 1473 1327Q1512 1327 1554 1450H1599Q1532 1270 1468 979H1423Q1434 1062 1434 1133Z" />
<glyph unicode="H" glyph-name="H" horiz-adv-x="1733" d="M1272 1444T1509 1444Q1770 1444 1896 1450L1886 1409Q1811 1406 1775 1393T1717 1345T1675 1233L1405 217Q1387 147 1387 117Q1387 87 1400 72T1443 50T1526 41L1518 0Q1395 6 1133 6Q896 6 770 0L778
41Q852 44 889 57T947 105T989 217L1120 709H668L537 217Q519 147 519 117Q519 87 532 72T575 50T657 41L649 0Q523 6 287 6Q30 6 -96 0L-86 41Q-15 44 21 57T79 105T121 217L391 1233Q408 1298 408 1331Q408 1362 395 1378T352 1400T270 1409L281 1450Q399 1444
664 1444Q884 1444 1028 1450L1018 1409Q943 1406 907 1393T849 1345T807 1233L679 750H1131L1260 1233Q1277 1298 1277 1331Q1277 1362 1263 1378T1221 1400T1139 1409L1149 1450Q1272 1444 1509 1444Z" />
<glyph unicode="I" glyph-name="I" horiz-adv-x="864" d="M519 147T519 117Q519 87 532 72T575 50T657 41L649 0Q517 6 266 6Q24 6 -96 0L-86 41Q-15 44 21 57T79 105T121 217L391 1233Q408 1298 408 1331Q408 1362 395 1378T352 1400T270 1409L281 1450Q394 1444
643 1444Q875 1444 1028 1450L1018 1409Q943 1406 907 1393T849 1345T807 1233L537 217Q519 147 519 117Z" />
<glyph unicode="J" glyph-name="J" horiz-adv-x="1464" d="M897 878T985 977T1179 1154T1444 1331Q1333 1300 1216 1235T1027 1141T848 1112Q790 1112 737 1126T592 1173T451 1206Q399 1206 367 1181T334 1102Q334 955 616 938L612 901Q406 914 287 997T168 1227Q168
1359 250 1436T494 1513Q638 1513 764 1447T967 1348T1169 1315Q1249 1315 1342 1332T1505 1386Q1584 1506 1633 1506Q1647 1506 1661 1495Q1674 1484 1674 1470Q1674 1420 1524 1364Q1420 1269 1350 1120T1218 750H1423L1417 709H1207L1186 629L1059 133Q999 -101
834 -243T369 -385Q215 -385 123 -342T31 -203Q31 -123 86 -74T244 -25Q334 -25 392 -63T451 -174Q451 -290 317 -346Q338 -350 365 -350Q425 -350 465 -311T538 -191T612 41L754 537Q780 629 815 709H535L541 750H834Q897 878 985 977Z" />
<glyph unicode="K" glyph-name="K" horiz-adv-x="1604" d="M934 617T934 645Q934 707 896 735Q806 712 768 712Q721 712 721 742Q721 746 723 756Q728 777 741 787T781 797Q818 797 896 776Q1016 794 1069 885T1172 1162T1278 1411Q1338 1479 1440 1479Q1509 1479
1564 1451T1650 1370T1681 1249Q1681 1188 1654 1132T1574 1040T1450 1004Q1404 1004 1365 1023T1301 1080T1276 1174Q1276 1255 1333 1327T1487 1434Q1467 1444 1434 1444Q1391 1444 1362 1430T1309 1386Q1260 1327 1211 1157T1115 892T963 765Q1096 756 1174
723T1285 635T1319 499Q1319 459 1311 406L1278 201Q1277 197 1277 190Q1277 170 1290 158T1323 145Q1379 145 1411 244L1446 348H1487L1434 190Q1397 80 1319 26T1143 -29Q1054 -29 991 -1T896 77T863 193Q863 214 868 244L926 567Q934 617 934 645ZM519 147T519
117Q519 87 532 72T575 50T657 41L649 0Q523 6 287 6Q30 6 -96 0L-86 41Q-15 44 21 57T79 105T121 217L391 1233Q408 1298 408 1331Q408 1362 395 1378T352 1400T270 1409L281 1450Q400 1444 664 1444Q884 1444 1028 1450L1018 1409Q943 1406 907 1393T849 1345T807
1233L537 217Q519 147 519 117Z" />
<glyph unicode="L" glyph-name="L" horiz-adv-x="1264" d="M1167 376T1139 262Q1107 154 1085 0Q946 6 623 6Q139 6 -98 0L-90 41Q-16 44 20 57T79 105T121 217L391 1233Q408 1298 408 1331Q408 1362 395 1378T352 1400T270 1409L281 1450Q400 1444 668 1444Q882
1444 1026 1450L1016 1409Q941 1406 905 1393T847 1345T805 1233L535 217Q517 147 517 117Q517 88 530 73T572 53T651 47H688Q763 47 846 85T1009 210T1143 430H1188Q1167 376 1139 262Z" />
<glyph unicode="M" glyph-name="M" horiz-adv-x="1944" d="M1954 1444T2107 1450L2097 1409Q2022 1406 1986 1393T1928 1345T1886 1233L1616 217Q1599 152 1599 119Q1599 88 1612 72T1655 50T1737 41L1729 0Q1578 6 1352 6Q1100 6 983 0L991 41Q1066 44 1102 57T1160
105T1202 217L1499 1321L649 -10H604L422 1186L184 281Q169 226 169 183Q169 46 350 41L342 0Q269 6 98 6Q-28 6 -96 0L-88 41Q8 45 60 110T139 281L393 1233Q410 1298 410 1331Q410 1362 397 1378T354 1400T272 1409L283 1450Q395 1444 629 1444Q738 1444 817
1450L936 516L1528 1444H1729Q1954 1444 2107 1450Z" />
<glyph unicode="N" glyph-name="N" horiz-adv-x="1763" d="M1405 1229T1532 1413Q1622 1544 1753 1544Q1824 1544 1878 1515T1963 1436T1993 1325Q1993 1261 1963 1212T1880 1137T1763 1110Q1679 1110 1630 1150T1581 1262Q1581 1322 1608 1371T1684 1451T1794
1493Q1778 1509 1743 1509Q1693 1509 1649 1479T1569 1397Q1478 1261 1380 920T1157 -10H1112L576 965Q403 134 285 -23Q240 -83 190 -117T66 -152Q-5 -152 -59 -123T-144 -44T-174 68Q-174 132 -144 181T-61 256T55 283Q139 283 188 243T238 131Q238 71 210 22T134
-58T25 -100Q40 -117 76 -117Q179 -117 252 -2Q329 118 410 428T588 1229V1233Q600 1290 600 1324Q600 1358 586 1375T538 1400T442 1409L453 1450Q517 1444 635 1444Q730 1444 801 1450L1248 580Q1405 1229 1532 1413Z" />
<glyph unicode="O" glyph-name="O" horiz-adv-x="1657" d="M70 695T194 932T543 1324T1047 1479Q1235 1479 1371 1421T1580 1252T1653 985Q1653 754 1528 518T1178 126T674 -29Q486 -29 350 29T142 197T70 463Q70 695 194 932ZM899 1442T779 1295T586 913T512
436Q512 305 535 208T599 60T692 8Q821 8 941 155T1134 537T1208 1014Q1208 1145 1185 1242T1122 1390T1028 1442Q899 1442 779 1295Z" />
<glyph unicode="P" glyph-name="P" horiz-adv-x="1391" d="M521 167T521 135Q521 90 551 68T655 41L647 0Q506 6 291 6Q25 6 -98 0L-90 41Q-16 44 20 57T79 105T121 217L391 1233Q405 1311 405 1327Q405 1368 376 1386T270 1409L281 1450Q400 1444 655 1444Q704
1444 803 1446T954 1448Q1224 1448 1354 1372T1485 1139Q1485 984 1378 860T1077 662T632 582L535 217Q521 167 521 135ZM786 634T878 723T1011 940T1053 1194Q1053 1300 1015 1354T895 1409Q862 1409 851 1390T827 1321T805 1233L643 624Q786 634 878 723Z" />
<glyph unicode="Q" glyph-name="Q" horiz-adv-x="1772" d="M1494 283T1553 230T1612 76Q1612 -36 1538 -143T1326 -317T1010 -385Q876 -385 768 -347T579 -255T403 -119Q251 -168 143 -168Q44 -168 -13 -126T-70 6Q-70 80 -30 140T82 234T242 268Q320 268 401
241T559 172T737 64Q914 160 1044 300T1247 621T1319 1016Q1319 1221 1247 1331T1038 1442Q907 1442 806 1346T648 1100T592 793Q592 720 608 671T666 593T786 565Q864 565 932 593T1050 670T1126 782Q1148 833 1151 891Q1130 816 1072 782T950 748Q896 748 855
772T792 840T770 938Q770 1003 801 1056T884 1139T999 1169Q1092 1169 1145 1103T1198 926Q1198 798 1129 701T935 551T651 498Q510 498 398 540T222 666T158 866Q158 1035 287 1176T631 1398T1087 1479Q1279 1479 1431 1428T1670 1283T1757 1069Q1757 913 1615
724T1247 355T772 42Q890 -34 968 -79T1133 -155T1303 -186Q1407 -186 1463 -142T1544 -37Q1474 -104 1370 -104Q1315 -104 1270 -83T1198 -21T1171 78Q1171 138 1200 184T1281 257T1399 283Q1494 283 1553 230ZM237 -133T370 -91Q280 -16 216 21T80 59Q29 59 3
39T-23 -18Q-23 -70 24 -101T156 -133Q237 -133 370 -91Z" />
<glyph unicode="R" glyph-name="R" horiz-adv-x="1520" d="M1475 248L1466 221Q1426 91 1341 31T1108 -29Q960 -29 887 27T813 186Q813 214 817 238L856 471Q862 507 862 540Q862 614 818 654T664 699L537 217Q517 141 517 117Q517 79 547 62T655 41L647 0Q506
6 283 6Q25 6 -98 0L-90 41Q-16 44 20 57T79 105T121 217L389 1233Q407 1305 407 1329Q407 1368 377 1386T270 1409L281 1450Q400 1444 629 1444Q710 1444 797 1446T942 1448Q1131 1448 1250 1420T1427 1330T1485 1165Q1485 1041 1406 945T1180 790T837 714Q972
705 1064 683T1212 612T1268 476Q1268 451 1264 428L1229 215Q1224 185 1224 167Q1224 88 1290 88Q1332 88 1362 120T1417 219L1427 248H1475ZM772 740T863 793T1014 952T1073 1208Q1073 1409 930 1409Q887 1409 864 1387T823 1303L674 735Q772 740 863 793Z" />
<glyph unicode="S" glyph-name="S" horiz-adv-x="1247" d="M1251 1274T1208 1047H1167Q1180 1102 1180 1159Q1180 1283 1102 1353T885 1423Q788 1423 726 1375T664 1225Q664 1090 814 916T1042 634T1120 385Q1120 246 1025 153T792 15T524 -29Q420 -29 354 -19T240
10T127 66Q73 96 57 96Q38 96 26 87T1 56T-31 -14H-72Q-4 148 68 477H109Q90 424 90 336Q90 179 177 99T424 18Q557 18 610 68T664 207Q664 323 612 418T406 706T252 1063Q252 1198 334 1292T541 1432T791 1479Q878 1479 947 1463T1051 1432T1153 1384Q1164 1379
1187 1368T1221 1356Q1237 1356 1252 1381T1288 1464H1329Q1251 1274 1208 1047Z" />
<glyph unicode="T" glyph-name="T" horiz-adv-x="1423" d="M678 1401T594 1401Q433 1401 360 1366Q441 1355 492 1303T543 1167Q543 1109 517 1063T445 990T344 963Q287 963 245 990T182 1062T160 1161Q160 1226 194 1287T309 1389Q410 1438 584 1438Q674 1438
766 1433T1038 1415T1313 1401Q1418 1401 1497 1416Q1461 1449 1438 1499T1415 1610Q1415 1672 1441 1718T1513 1789T1618 1815Q1677 1815 1723 1790T1794 1725T1819 1638Q1819 1488 1647 1415Q1512 1360 1292 1360L1233 1361L936 238Q921 184 921 149Q921 95 959
71T1090 41L1081 0Q937 6 653 6Q381 6 252 0L260 41Q348 44 396 62T472 120T520 238L827 1390Q678 1401 594 1401Z" />
<glyph unicode="U" glyph-name="U" horiz-adv-x="1438" d="M1378 1219T1378 1281Q1378 1322 1363 1347T1313 1386T1219 1409L1231 1450Q1311 1444 1458 1444Q1566 1444 1630 1450L1618 1409Q1551 1395 1513 1365T1448 1274T1389 1090L1262 596Q1187 311 1061 162Q986
74 876 23T641 -29Q462 -29 349 23T186 166Q144 244 144 349Q144 447 182 590L352 1233Q369 1298 369 1331Q369 1362 356 1378T313 1400T231 1409L244 1450Q364 1444 631 1444Q845 1444 989 1450L977 1409Q902 1406 866 1393T808 1345T766 1233L586 555Q535 364
535 246Q535 43 680 43Q895 43 1018 182T1208 573L1333 1049Q1378 1219 1378 1281Z" />
<glyph unicode="V" glyph-name="V" horiz-adv-x="1393" d="M1264 1444T1497 1444Q1587 1444 1651 1450L1640 1409Q1587 1393 1548 1369T1467 1298T1370 1165L606 -10Q569 -7 530 -7Q492 -7 453 -10L291 1278Q283 1344 252 1375T184 1409L195 1450Q311 1444 539
1444Q775 1444 895 1450L885 1409Q823 1406 788 1396T736 1358T719 1280Q719 1253 721 1237L814 381L1335 1182Q1381 1252 1381 1301Q1381 1396 1196 1409L1206 1450Q1264 1444 1497 1444Z" />
<glyph unicode="W" glyph-name="W" horiz-adv-x="2120" d="M1980 1444T2212 1444Q2301 1444 2365 1450L2355 1409Q2298 1392 2259 1370T2177 1300T2085 1165L1415 -10H1262L1149 892L598 -10H444L283 1278Q274 1345 243 1376T176 1409L186 1450Q303 1444 530 1444Q724
1444 825 1450L815 1409Q776 1406 755 1395T723 1357T712 1279Q712 1252 713 1237L803 406L1141 953L1100 1278Q1093 1344 1068 1375T1014 1409L1024 1450Q1135 1444 1348 1444Q1584 1444 1704 1450L1694 1409Q1632 1406 1597 1396T1545 1358T1528 1280Q1528 1253
1530 1237L1618 427L2050 1182Q2092 1256 2092 1304Q2092 1355 2046 1379T1911 1409L1921 1450Q1980 1444 2212 1444Z" />
<glyph unicode="X" glyph-name="X" horiz-adv-x="1575" d="M1085 1092T1165 1215T1317 1405Q1409 1479 1503 1479Q1569 1479 1619 1448T1696 1362T1724 1241Q1724 1170 1695 1117T1614 1034T1501 1004Q1424 1004 1379 1049T1333 1176Q1333 1236 1360 1288T1435
1377T1546 1427Q1531 1444 1493 1444Q1430 1444 1358 1393Q1288 1334 1199 1200T1025 877L1106 215Q1118 137 1192 137Q1276 137 1313 244L1348 348H1389L1335 190Q1292 73 1217 22T1028 -29Q908 -29 836 7T728 113T678 291L655 474Q582 339 494 223T322 39Q228
-29 129 -29Q63 -29 13 2T-64 88T-92 209Q-92 280 -63 333T18 416T131 446Q208 446 253 401T299 274Q299 214 272 162T197 73T86 23Q101 6 139 6Q197 6 279 57Q355 112 454 238T647 538L559 1245Q553 1289 534 1308T477 1327Q394 1327 352 1206L317 1102H276L330
1260Q373 1376 456 1427T664 1479Q771 1479 838 1445T941 1341T991 1159L1017 946Q1085 1092 1165 1215Z" />
<glyph unicode="Y" glyph-name="Y" horiz-adv-x="1589" d="M236 1365T327 1422T539 1479Q691 1479 773 1399T893 1172T963 756Q1091 1151 1266 1356Q1371 1479 1509 1479Q1580 1479 1634 1450T1719 1371T1749 1260Q1749 1196 1719 1147T1636 1071T1520 1044Q1436
1044 1387 1084T1337 1196Q1337 1256 1365 1305T1441 1385T1550 1427Q1535 1444 1499 1444Q1466 1444 1436 1433T1368 1395Q1315 1356 1242 1249T1093 977T963 609L864 217Q853 171 853 144Q853 103 872 82T927 52T1026 41L1016 0Q887 6 598 6Q347 6 227 0L238
41Q312 44 349 57T408 105T449 217L554 636Q536 803 504 954T426 1204T322 1303Q286 1303 265 1276T229 1206L195 1102H150L193 1233Q236 1365 327 1422Z" />
<glyph unicode="Z" glyph-name="Z" horiz-adv-x="1356" d="M1034 1077T823 1077Q741 1077 679 1089T533 1126T408 1151Q348 1151 348 1104Q348 1037 498 1008L487 969Q360 988 274 1046T188 1206Q188 1285 228 1347T343 1444T518 1479Q605 1479 671 1459T871 1380T1130
1321Q1200 1321 1290 1352Q1327 1406 1368 1438T1441 1471Q1457 1471 1470 1460Q1482 1449 1482 1433Q1482 1404 1444 1370T1329 1307L762 750H1073L1057 709H721L168 166Q386 373 600 373Q682 373 744 361T890 324T1016 299Q1075 299 1075 346Q1075 413 926 442L934
481Q1061 462 1147 404T1233 244Q1233 165 1193 103T1078 6T903 -29Q817 -29 750 -9T550 70T291 129Q221 129 131 98Q95 45 53 12T-20 -21Q-36 -21 -49 -10Q-61 0 -61 17Q-61 45 -23 79T92 143L668 709H336L350 750H709L1248 1279Q1034 1077 823 1077Z" />
<glyph unicode="[" glyph-name="bracketleft" horiz-adv-x="827" d="M995 1581L987 1542H821L352 -332H518L510 -371H-43L442 1581H995Z" />
<glyph unicode="\" glyph-name="backslash" horiz-adv-x="1004" d="M731 -29L268 1479H332L799 -29H731Z" />
<glyph unicode="]" glyph-name="bracketright" horiz-adv-x="829" d="M-166 -371L-158 -332H8L477 1542H311L319 1581H872L387 -371H-166Z" />
<glyph unicode="^" glyph-name="asciicircum" horiz-adv-x="1071" d="M739 646T512 741Q363 668 123 618L115 647Q274 716 415 833T643 1081H680Q701 947 779 832T987 649L975 618Q739 646 512 741Z" />
<glyph unicode="_" glyph-name="underscore" horiz-adv-x="1366" d="M936 -371H-119L-33 -144H1022L936 -371Z" />
<glyph unicode="`" glyph-name="grave" horiz-adv-x="457" d="M367 1289T322 1332T205 1437T106 1544Q84 1582 84 1622Q84 1655 98 1683T141 1729Q172 1749 211 1749Q250 1749 285 1730T338 1681Q359 1649 368 1615T392 1471T446 1241L422 1227Q367 1289 322 1332Z" />
<glyph unicode="a" glyph-name="a" horiz-adv-x="1360" d="M1131 104T1159 74T1223 41L1212 0Q1094 6 866 6Q629 6 518 0L528 41Q591 44 629 55T687 94T707 173Q707 199 705 213L674 467H258L98 268Q44 201 44 155Q44 66 236 41L227 0Q45 6 -63 6Q-133 6 -197
0L-188 41Q-149 59 -117 84T-47 154T61 285L842 1260Q894 1256 919 1256Q945 1256 995 1260L1122 172Q1131 104 1159 74ZM619 917L291 508H669L619 917Z" />
<glyph unicode="b" glyph-name="b" horiz-adv-x="1432" d="M345 1239T592 1239Q638 1239 733 1241T881 1243Q1141 1243 1261 1184T1382 995Q1382 909 1316 838T1120 720T805 662Q986 660 1097 621T1257 522T1305 391Q1305 261 1221 174T983 43T625 0Q576 0 462
3T272 6Q23 6 -100 0L-92 41Q-18 44 18 57T77 105T119 217L336 1028Q354 1095 354 1127Q354 1167 324 1184T215 1204L225 1245Q345 1239 592 1239ZM770 668T835 719T934 857T967 1047Q967 1204 850 1204Q827 1204 815 1198T794 1176T776 1126L655 668H678Q770 668
835 719ZM515 146T515 107Q515 47 563 47Q715 47 794 149T874 426Q874 633 707 633H645L535 217Q515 146 515 107Z" />
<glyph unicode="c" glyph-name="c" horiz-adv-x="1409" d="M1100 44T1100 70Q1100 122 1074 122Q1058 122 1032 104Q939 39 850 5T643 -29Q457 -29 323 21T117 167T45 401Q45 608 165 811T506 1144T1008 1274Q1119 1274 1188 1239T1311 1141Q1326 1123 1340 1123Q1378
1123 1423 1245H1468Q1404 1056 1335 774H1290Q1303 888 1303 932Q1303 1010 1270 1077Q1233 1155 1159 1196T989 1237Q854 1237 736 1102T546 761T475 360Q475 191 525 100T662 8Q756 8 856 50T1030 168Q1084 224 1123 294T1214 492H1260Q1163 137 1139 0H1094Q1100
44 1100 70Z" />
<glyph unicode="d" glyph-name="d" horiz-adv-x="1655" d="M377 1238T522 1238L594 1239Q771 1245 897 1245Q1260 1245 1432 1129T1604 776Q1604 563 1476 386T1111 104T567 0Q532 0 433 3T240 6Q25 6 -92 0L-86 41Q-16 44 19 57T77 105T119 217L338 1028Q356
1098 356 1124Q356 1166 325 1184T215 1204L221 1245Q377 1238 522 1238ZM514 131T514 99Q514 63 535 50T608 37Q786 37 916 147T1114 429T1182 786Q1182 921 1146 1015T1041 1159T881 1208Q841 1208 821 1196T785 1148T750 1032L535 213Q514 131 514 99Z" />
<glyph unicode="e" glyph-name="e" horiz-adv-x="1319" d="M461 1239T936 1239Q1231 1239 1360 1245Q1309 1114 1282 1004Q1291 1041 1255 877H1210Q1213 910 1213 939Q1213 1198 963 1198H956Q884 1198 849 1187T793 1141T752 1028L650 647H680Q744 647 803 679T906
763T973 877H1018Q992 798 975 729T948 627Q925 540 895 377H850Q850 431 831 483T768 570T651 606H639L535 217Q517 147 517 117Q517 88 530 73T572 53T651 47H678Q779 47 859 82T1005 196T1126 410H1171Q1158 375 1128 262Q1096 145 1075 0Q936 6 612 6Q137 6
-100 0L-92 41Q-18 44 18 57T77 105T119 217L336 1028Q353 1093 353 1126Q353 1157 339 1173T297 1195T215 1204L225 1245Q461 1239 936 1239Z" />
<glyph unicode="f" glyph-name="f" horiz-adv-x="1243" d="M461 1239T936 1239Q1231 1239 1360 1245Q1313 1123 1280 991Q1256 895 1241 815H1196Q1199 851 1199 885Q1199 1034 1137 1116T963 1198H956Q884 1198 849 1187T793 1141T752 1028L650 645H700Q795 645
871 699T989 854H1034Q990 721 965 604Q941 502 911 334H866Q855 604 672 604H639L535 217Q520 160 520 126Q520 92 537 75T590 50T696 41L688 0Q550 6 281 6Q23 6 -100 0L-92 41Q-18 44 18 57T77 105T119 217L336 1028Q353 1093 353 1126Q353 1157 339 1173T297
1195T215 1204L225 1245Q461 1239 936 1239Z" />
<glyph unicode="g" glyph-name="g" horiz-adv-x="1524" d="M1199 17T1199 31Q1199 96 1145 96Q1110 96 1071 85T971 47Q866 2 799 -13T653 -29Q458 -29 322 21T116 166T45 399Q45 599 163 803T500 1140T1008 1274Q1218 1274 1364 1141Q1383 1122 1400 1122Q1439
1122 1481 1245H1526Q1461 1059 1395 774H1350Q1360 862 1360 928Q1360 977 1354 1012T1331 1077Q1239 1237 995 1237Q818 1237 698 1083T519 716T461 332Q461 172 521 92T694 12Q751 12 785 28T840 79T872 176L909 313Q922 365 922 395Q922 453 883 479T756 510L764
551Q902 545 1155 545Q1380 545 1491 551L1483 510Q1432 507 1407 495T1366 448T1327 334L1237 0H1196Q1199 17 1199 31Z" />
<glyph unicode="h" glyph-name="h" horiz-adv-x="1729" d="M1215 1239T1452 1239Q1713 1239 1839 1245L1829 1204Q1754 1201 1718 1188T1660 1140T1618 1028L1403 217Q1385 147 1385 117Q1385 87 1398 72T1441 50T1524 41L1516 0Q1393 6 1130 6Q894 6 768 0L776
41Q850 44 886 57T945 105T987 217L1090 606H638L535 217Q517 147 517 117Q517 87 530 72T573 50T655 41L647 0Q521 6 285 6Q28 6 -98 0L-88 41Q-17 44 19 57T77 105T119 217L334 1028Q351 1093 351 1126Q351 1157 337 1173T295 1195T213 1204L223 1245Q343 1239
606 1239Q826 1239 971 1245L961 1204Q885 1201 849 1188T791 1140T750 1028L649 647H1101L1202 1028Q1220 1093 1220 1127Q1220 1157 1206 1173T1163 1195T1081 1204L1092 1245Q1215 1239 1452 1239Z" />
<glyph unicode="i" glyph-name="i" horiz-adv-x="860" d="M517 147T517 117Q517 87 530 72T573 50T655 41L647 0Q515 6 264 6Q22 6 -98 0L-88 41Q-17 44 19 57T77 105T119 217L334 1028Q351 1093 351 1126Q351 1157 337 1173T295 1195T213 1204L223 1245Q337 1239
586 1239Q816 1239 971 1245L961 1204Q885 1201 849 1188T791 1140T750 1028L535 217Q517 147 517 117Z" />
<glyph unicode="j" glyph-name="j" horiz-adv-x="1477" d="M799 661T895 758T1091 919T1407 1106Q1276 1071 1139 1007T931 915T770 887Q718 887 670 901T540 948T414 981Q363 981 330 955T297 877Q297 730 580 713L575 676Q369 688 250 772T131 1001Q131 1133
213 1210T457 1288Q602 1288 728 1222T931 1123T1133 1090Q1212 1090 1305 1107T1468 1161Q1547 1280 1597 1280Q1614 1280 1626 1268Q1637 1257 1637 1245Q1637 1199 1487 1139Q1399 1068 1338 981T1233 788T1140 524H1346L1339 483H1128L1124 471L981 -10Q949
-118 866 -203T657 -336T375 -385Q179 -385 77 -343T-25 -199Q-25 -122 31 -74T190 -25Q281 -25 338 -64T395 -176Q395 -290 262 -346Q281 -350 322 -350Q380 -350 419 -319T486 -232T541 -84L680 379Q696 434 717 483H457L463 524H735Q799 661 895 758Z" />
<glyph unicode="k" glyph-name="k" horiz-adv-x="1546" d="M840 523T840 559Q840 604 817 625Q761 609 728 609Q678 609 678 647Q678 686 728 686Q765 686 828 666Q938 678 987 760T1078 992T1155 1186Q1195 1236 1239 1255T1346 1274Q1453 1274 1518 1218T1583
1061Q1583 992 1554 937T1474 850T1360 819Q1275 819 1227 861T1178 985Q1178 1038 1202 1090T1268 1181T1364 1231Q1352 1239 1323 1239Q1278 1239 1246 1221T1186 1161Q1159 1122 1120 982T1033 758T886 651Q998 638 1068 618T1179 554T1220 436Q1220 416 1217
393L1190 213Q1189 206 1189 195Q1189 145 1237 145Q1267 145 1288 167T1327 244L1362 348H1403L1350 190Q1310 72 1233 22T1040 -29Q785 -29 785 186Q785 220 793 268L831 479Q840 523 840 559ZM517 147T517 117Q517 87 530 72T573 50T655 41L647 0Q521 6 285
6Q28 6 -98 0L-88 41Q-17 44 19 57T77 105T119 217L334 1028Q351 1093 351 1126Q351 1157 337 1173T295 1195T213 1204L223 1245Q343 1239 606 1239Q826 1239 971 1245L961 1204Q885 1201 849 1188T791 1140T750 1028L535 217Q517 147 517 117Z" />
<glyph unicode="l" glyph-name="l" horiz-adv-x="1270" d="M1163 376T1135 262Q1103 154 1081 0Q942 6 618 6Q135 6 -102 0L-94 41Q-20 44 16 57T75 105T117 217L338 1028Q355 1093 355 1126Q355 1157 341 1173T299 1195T217 1204L227 1245Q347 1239 614 1239Q829
1239 973 1245L963 1204Q888 1201 852 1188T794 1141T752 1028L530 217Q516 152 516 118Q516 75 540 61T627 47H684Q759 47 842 85T1005 210T1139 430H1184Q1163 376 1135 262Z" />
<glyph unicode="m" glyph-name="m" horiz-adv-x="1837" d="M1793 1239T1948 1245L1937 1204Q1862 1201 1826 1188T1768 1140T1726 1028L1511 217Q1494 152 1494 119Q1494 88 1507 72T1550 50T1632 41L1624 0Q1474 6 1247 6Q995 6 879 0L887 41Q962 44 998 57T1055
105T1098 217L1278 884L647 -10Q615 -6 574 -6Q533 -6 500 -10L345 895L168 227Q155 180 155 150Q155 97 198 71T348 41L340 0Q267 6 96 6Q-31 6 -98 0L-90 41Q-22 44 19 65T83 125T123 227L336 1028Q353 1093 353 1126Q353 1157 339 1173T297 1195T215 1204L225
1245Q290 1239 408 1239Q576 1239 702 1245L853 363L1470 1239H1569Q1793 1239 1948 1245Z" />
<glyph unicode="n" glyph-name="n" horiz-adv-x="1896" d="M1480 1053T1599 1208Q1697 1339 1821 1339Q1892 1339 1946 1310T2030 1231T2060 1120Q2060 1056 2030 1007T1947 932T1831 905Q1747 905 1698 945T1649 1057Q1649 1117 1676 1166T1752 1246T1862 1288Q1843
1305 1810 1305Q1756 1305 1716 1276T1636 1192Q1455 936 1225 -10H1180L608 926Q416 133 291 -23Q242 -83 192 -117T72 -152Q1 -152 -53 -123T-138 -44T-168 68Q-168 132 -138 181T-55 256T61 283Q145 283 194 243T244 131Q244 71 217 22T141 -58T31 -100Q45 -115
82 -115Q131 -115 177 -85T258 -2Q335 112 420 392T606 1107Q609 1147 596 1166T550 1193T449 1204L459 1245Q524 1239 641 1239Q792 1239 909 1245L1329 537Q1480 1053 1599 1208Z" />
<glyph unicode="o" glyph-name="o" horiz-adv-x="1661" d="M492 -29T351 25T132 190T53 465Q53 650 173 839T508 1151T991 1274Q1179 1274 1320 1220T1539 1055T1618 780Q1618 595 1498 406T1163 94T680 -29Q492 -29 351 25ZM840 1237T731 1121T560 819T498 436Q498
215 551 112T698 8Q831 8 940 124T1112 426T1174 809Q1174 1030 1120 1133T973 1237Q840 1237 731 1121Z" />
<glyph unicode="p" glyph-name="p" horiz-adv-x="1376" d="M515 155T515 128Q515 84 545 65T655 41L647 0Q506 6 283 6Q25 6 -98 0L-90 41Q-16 44 20 57T79 105T121 217L334 1028Q352 1100 352 1125Q352 1164 322 1182T215 1204L225 1245Q345 1239 573 1239Q656
1239 744 1241T883 1243Q1430 1243 1430 967Q1430 842 1327 738T1036 571T607 501L530 217Q515 155 515 128ZM752 554T836 628T959 812T997 1042Q997 1131 974 1167T889 1204Q847 1204 823 1188T784 1136T750 1028L618 543Q752 554 836 628Z" />
<glyph unicode="q" glyph-name="q" horiz-adv-x="1761" d="M1477 242T1536 189T1595 35Q1595 -67 1521 -164T1310 -323T993 -385Q864 -385 759 -348T575 -258T406 -125Q254 -168 147 -168Q49 -168 -8 -125T-66 6Q-66 80 -25 140T87 234T246 268Q322 268 401 242T554
173T725 68Q971 199 1116 386T1262 811Q1262 1015 1195 1126T1001 1237Q870 1237 769 1141T611 895T555 588Q555 515 569 466T621 388T729 360Q817 360 892 395T1017 492T1085 629Q1094 661 1094 686Q1074 612 1016 578T893 543Q839 543 798 567T735 635T713 733Q713
798 744 851T827 934T942 965Q1035 965 1088 899T1141 721Q1141 593 1071 496T877 346T594 293Q459 293 352 335T183 461T121 662Q121 831 250 971T594 1193T1051 1274Q1236 1274 1384 1223T1616 1078T1700 864Q1700 738 1571 585T1232 285T790 26Q894 -43 969
-86T1126 -157T1286 -186Q1465 -186 1528 -78Q1458 -145 1354 -145Q1267 -145 1211 -97T1155 37Q1155 97 1184 143T1264 216T1382 242Q1477 242 1536 189ZM251 -133T372 -95Q312 -44 269 -13T180 39T84 59Q-18 59 -18 -18Q-18 -70 28 -101T160 -133Q251 -133 372
-95Z" />
<glyph unicode="r" glyph-name="r" horiz-adv-x="1477" d="M1399 248L1391 221Q1308 -29 1040 -29Q902 -29 839 33T782 199L793 354Q794 369 794 396Q794 486 760 531T641 586H631L532 217Q518 164 518 131Q518 86 548 66T653 41L645 0Q504 6 281 6Q23 6 -100
0L-92 41Q-18 44 18 56T76 104T119 217L336 1028Q353 1091 353 1120Q353 1161 323 1180T215 1204L225 1245Q345 1239 578 1239Q668 1239 783 1241T950 1243Q1194 1243 1300 1181T1407 991Q1407 886 1341 804T1151 669T855 597Q982 580 1058 550T1171 466T1202 324L1196
215Q1195 205 1195 187Q1195 109 1235 109Q1299 109 1341 219L1352 248H1399ZM765 627T838 678T954 821T997 1028Q997 1114 970 1159T881 1204Q846 1204 824 1188T785 1135T750 1028L642 627H678Q765 627 838 678Z" />
<glyph unicode="s" glyph-name="s" horiz-adv-x="1305" d="M1249 1065T1206 842H1165Q1178 898 1178 956Q1178 1034 1136 1097T1020 1196T858 1233Q783 1233 732 1210T655 1147T629 1061Q629 1010 649 967T721 869T879 723Q994 624 1047 572T1131 463T1161 336Q1161
213 1071 131T834 10T514 -29Q398 -29 316 -9T141 59Q76 96 51 96Q28 96 12 72T-31 -14H-72Q-4 148 68 477H109Q90 378 90 326Q90 184 183 101T461 18Q555 18 621 63T688 201Q688 275 637 347T461 524Q327 636 268 723T209 911Q209 1034 292 1115T510 1235T799
1274Q987 1274 1114 1200Q1125 1194 1147 1181T1187 1159T1217 1151Q1236 1151 1250 1176T1286 1260H1327Q1249 1065 1206 842Z" />
<glyph unicode="t" glyph-name="t" horiz-adv-x="1454" d="M635 1217T549 1217Q389 1217 311 1161Q393 1150 445 1097T498 963Q498 905 472 858T400 785T299 758Q242 758 200 785T137 858T115 954Q115 1017 150 1080T260 1188Q369 1253 557 1253Q633 1253 716
1246T985 1217T1274 1196Q1416 1196 1473 1217Q1428 1246 1399 1297T1370 1409Q1370 1466 1394 1511T1464 1583T1571 1610Q1631 1610 1677 1586T1749 1521T1774 1434Q1774 1374 1745 1322T1640 1225Q1527 1155 1257 1155Q1226 1155 1189 1157L926 238Q907 173 907
139Q907 104 924 84T978 54T1079 41L1071 0Q927 6 643 6Q371 6 242 0L250 41Q338 44 385 61T460 119T510 238L786 1200Q635 1217 549 1217Z" />
<glyph unicode="u" glyph-name="u" horiz-adv-x="1448" d="M1187 311T1061 162Q898 -29 590 -29Q307 -29 203 82Q163 123 145 170T127 282Q127 381 182 590L299 1028Q316 1093 316 1126Q316 1157 302 1173T260 1195T178 1204L190 1245Q310 1239 578 1239Q792 1239
936 1245L924 1204Q849 1201 813 1188T755 1141T713 1028L586 555Q532 355 532 238Q532 43 680 43Q895 43 1018 182T1208 573L1280 844Q1327 1017 1327 1077Q1327 1118 1311 1143T1261 1182T1167 1204L1180 1245Q1259 1239 1407 1239Q1528 1239 1599 1245L1587
1204Q1511 1191 1469 1161T1398 1069T1337 885L1262 596Q1187 311 1061 162Z" />
<glyph unicode="v" glyph-name="v" horiz-adv-x="1360" d="M1323 1239T1432 1239Q1501 1239 1565 1245L1556 1204Q1517 1186 1485 1161T1415 1091T1307 961L537 -10Q498 -7 460 -7Q422 -7 383 -10L248 1073Q240 1139 209 1170T141 1204L152 1245Q267 1239 496
1239Q724 1239 844 1245L834 1204Q772 1201 737 1191T685 1156T667 1081Q667 1059 670 1032L756 333L1270 977Q1324 1045 1324 1091Q1324 1179 1133 1204L1141 1245Q1323 1239 1432 1239Z" />
<glyph unicode="w" glyph-name="w" horiz-adv-x="1931" d="M1870 1239T1980 1239Q2050 1239 2114 1245L2105 1204Q2057 1182 2023 1160T1947 1090T1855 961L1262 -10Q1229 -6 1185 -6Q1142 -6 1106 -10L990 701L567 -10Q535 -6 491 -6Q448 -6 412 -10L217 1073Q193
1204 123 1204L131 1245Q269 1239 434 1239Q642 1239 739 1245L731 1204Q688 1198 670 1176T652 1114Q652 1082 662 1032L769 406L980 763L930 1073Q915 1200 858 1204L866 1245Q986 1239 1151 1239Q1399 1239 1516 1245L1507 1204Q1445 1201 1411 1192T1361 1162T1345
1099Q1345 1068 1352 1032L1449 377L1812 977Q1861 1058 1861 1100Q1861 1140 1819 1166T1681 1204L1690 1245Q1870 1239 1980 1239Z" />
<glyph unicode="x" glyph-name="x" horiz-adv-x="1548" d="M1096 1103T1210 1202Q1295 1274 1403 1274Q1469 1274 1519 1243T1596 1157T1624 1036Q1624 965 1595 912T1514 829T1401 799Q1323 799 1278 844T1233 971Q1233 1063 1292 1132T1446 1223Q1430 1239 1393
1239Q1320 1239 1257 1188Q1198 1142 1126 1039T979 790L1032 317Q1042 230 1069 188T1153 145Q1203 145 1231 171T1276 244L1311 348H1352L1298 190Q1263 86 1189 29T1001 -29Q818 -29 736 53T637 291L626 388Q559 277 484 185T338 39Q253 -29 145 -29Q79 -29
29 2T-48 88T-76 209Q-76 280 -46 333T35 416T147 446Q225 446 270 401T315 274Q315 214 288 162T213 73T102 23Q119 6 156 6Q220 6 295 57Q362 103 448 206T618 455L565 928Q555 1012 528 1056T444 1100Q396 1100 367 1073T319 993L287 897H246L289 1026Q331 1154
410 1214T610 1274Q785 1274 864 1190T961 954L971 863Q1096 1103 1210 1202Z" />
<glyph unicode="y" glyph-name="y" horiz-adv-x="1462" d="M917 863T977 970T1087 1139Q1138 1202 1202 1238T1333 1274Q1397 1274 1447 1243T1524 1157T1552 1036Q1552 965 1523 912T1442 829T1329 799Q1252 799 1207 844T1161 971Q1161 1032 1187 1084T1262
1173T1374 1223Q1357 1235 1321 1235Q1234 1235 1153 1151Q1010 1004 872 633L766 217Q749 151 749 118Q749 88 762 72T805 50T887 41L877 0Q748 6 498 6Q249 6 129 0L139 41Q215 44 252 57T310 106T350 217L431 530Q408 710 384 824T330 999T258 1059Q217 1059
195 991L162 897H117L168 1047Q205 1155 282 1214T479 1274Q598 1274 669 1231T782 1091T854 819L869 736Q917 863 977 970Z" />
<glyph unicode="z" glyph-name="z" horiz-adv-x="1356" d="M1170 1069T1063 1000T893 902T754 872Q680 872 624 884T493 921T379 946Q319 946 319 899Q319 832 469 803L459 764Q332 783 246 840T160 1001Q160 1080 200 1142T315 1239T489 1274Q576 1274 643 1254T843
1175T1102 1116Q1171 1116 1262 1147Q1288 1184 1331 1225T1411 1266Q1432 1266 1446 1251Q1458 1239 1458 1224Q1458 1201 1432 1177T1368 1132T1300 1102L739 647H1044L1028 606H689L113 139Q193 176 300 245T470 343T612 373Q686 373 742 361T873 324T987 299Q1047
299 1047 346Q1047 413 897 442L905 481Q1032 462 1118 405T1204 244Q1204 165 1164 103T1049 6T874 -29Q788 -29 721 -9T521 70T262 129Q193 129 102 98Q91 79 65 51T9 0T-48 -22Q-70 -22 -84 -4Q-91 7 -91 19Q-91 54 -40 88T63 143L634 606H307L322 647H685L1251
1106Q1170 1069 1063 1000Z" />
<glyph unicode="{" glyph-name="braceleft" horiz-adv-x="815" d="M278 -388T176 -341T63 -196T98 89Q166 364 166 465Q165 527 142 555T69 586H59L65 623H76Q142 628 186 672T270 821T356 1121Q403 1316 484 1420T687 1563T1005 1602L995 1563Q923 1562 885 1535T812
1418T725 1121Q679 938 604 835T415 682T121 605Q263 577 344 543T463 453T501 308Q501 225 467 89Q404 -164 407 -243Q407 -284 419 -306T457 -336T524 -346L514 -385Q278 -388 176 -341Z" />
<glyph unicode="|" glyph-name="bar" horiz-adv-x="825" d="M309 -399V1757H555V-399H309Z" />
<glyph unicode="}" glyph-name="braceright" horiz-adv-x="813" d="M539 1605T641 1558T754 1413T719 1128Q651 853 651 752Q652 690 675 662T748 631H758L752 594H741Q675 589 631 545T547 396T461 96Q414 -99 333 -203T130 -346T-188 -385L-178 -346Q-106 -345
-68 -318T5 -201T92 96Q138 279 213 382T402 535T696 612Q554 640 473 674T354 764T316 909Q316 992 350 1128Q413 1381 410 1460Q410 1501 398 1523T360 1553T293 1563L303 1602Q539 1605 641 1558Z" />
<glyph unicode="~" glyph-name="asciitilde" horiz-adv-x="1317" d="M1212 670T1142 584T983 450T795 403Q724 403 669 424T509 504T313 563Q178 563 102 444L74 455Q117 571 187 657T346 791T535 838Q605 838 660 817T820 737T1016 678Q1151 678 1227 797L1255
786Q1212 670 1142 584Z" />
<glyph unicode="&#xa0;" glyph-name="nbspace" horiz-adv-x="526" />
<glyph unicode="&#xa1;" glyph-name="exclamdown" horiz-adv-x="672" d="M238 937T268 986T350 1064T467 1092Q546 1092 587 1057T629 952Q629 898 598 849T514 770T398 739Q319 739 279 773T238 874Q238 937 268 986ZM323 536T323 397Q323 315 332 211T346 35T352
-109Q352 -242 282 -313T78 -385Q-3 -385 -50 -349T-98 -238Q-98 -163 -56 -76T125 241T315 653L352 647Q323 536 323 397Z" />
<glyph unicode="&#xa2;" glyph-name="cent" horiz-adv-x="1038" d="M1412 1056T1343 774H1298Q1311 888 1311 932Q1311 1009 1278 1077Q1241 1155 1167 1196T997 1237Q915 1237 838 1185T695 1041L487 269Q500 142 547 75T670 8Q764 8 864 50T1038 168Q1092 224
1131 294T1222 492H1268Q1171 137 1147 0H1102Q1108 43 1108 70Q1108 122 1082 122Q1065 122 1040 104Q947 39 858 5T651 -29Q520 -29 414 -4L315 -371H270L372 7Q218 53 136 153T53 401Q53 566 131 732T357 1031T700 1226L760 1450H805L748 1240Q877 1274 1016
1274Q1127 1274 1196 1239T1319 1141Q1334 1123 1348 1123Q1386 1123 1431 1245H1476Q1412 1056 1343 774ZM560 795T527 672T485 429L613 902Q560 795 527 672Z" />
<glyph unicode="&#xa3;" glyph-name="sterling" horiz-adv-x="1442" d="M455 1176T639 1341T1124 1507Q1201 1507 1260 1478T1351 1399T1384 1288Q1384 1212 1355 1154T1275 1064T1161 1032Q1076 1032 1028 1074T979 1198Q979 1262 1004 1316T1076 1406T1182 1454Q1157
1477 1115 1477Q1030 1477 976 1421T887 1235L787 854H1065L1053 813H776Q747 721 701 649H1010L997 608H672Q609 528 492 444T307 300T180 139Q409 373 639 373Q721 373 783 361T929 324T1055 299Q1114 299 1114 346Q1114 413 965 442L973 481Q1100 462 1186 404T1272
244Q1272 165 1232 103T1117 6T942 -29Q856 -29 789 -9T589 70T330 129Q233 129 166 106Q133 38 78 5T-37 -29Q-51 -29 -57 -25T-63 -8Q-63 18 -42 48T25 105T139 141Q182 225 216 310T285 528L306 608H106L119 649H317L360 813H162L174 854H371L383 899Q455 1176
639 1341Z" />
<glyph unicode="&#xa4;" glyph-name="currency" horiz-adv-x="1468" d="M254 507T254 614Q254 711 293 805L154 944L406 1196L543 1059Q636 1100 737 1100Q835 1100 930 1059L1069 1198L1321 946L1182 807Q1223 714 1223 614Q1223 513 1182 420L1321 281L1069
29L928 170Q834 131 737 131Q630 131 545 170L406 31L154 283L293 422Q254 507 254 614ZM551 547T576 499T645 426T741 401Q794 401 837 425T906 498T932 614Q932 682 907 730T838 804T741 829Q688 829 645 804T577 731T551 614Q551 547 576 499Z" />
<glyph unicode="&#xa5;" glyph-name="yen" horiz-adv-x="1690" d="M285 1365T376 1422T588 1479Q740 1479 822 1399T942 1172T1012 756Q1140 1151 1315 1356Q1420 1479 1558 1479Q1629 1479 1683 1450T1768 1371T1798 1260Q1798 1196 1768 1147T1685 1071T1569
1044Q1485 1044 1436 1084T1386 1196Q1386 1256 1414 1305T1490 1385T1599 1427Q1584 1444 1548 1444Q1515 1444 1485 1433T1417 1395Q1364 1356 1291 1249T1142 977T1012 609V608H1276L1266 567H1001L970 444H1231L1221 403H960L913 217Q902 171 902 144Q902 103
921 82T976 52T1075 41L1065 0Q936 6 647 6Q396 6 276 0L287 41Q361 44 398 57T457 105T498 217L545 403H258L268 444H555L586 567H303L313 608H596L603 636Q574 905 514 1104T371 1303Q335 1303 314 1276T278 1206L244 1102H199L242 1233Q285 1365 376 1422Z"
/>
<glyph unicode="&#xa6;" glyph-name="brokenbar" horiz-adv-x="831" d="M313 786V1757H559V786H313ZM559 668V-399H313V668H559Z" />
<glyph unicode="&#xa7;" glyph-name="section" horiz-adv-x="1272" d="M922 1385T969 1444T1085 1534Q1076 1543 1040 1553T961 1563Q890 1563 830 1533T734 1446T698 1317Q698 1252 734 1208T832 1112T922 1038Q1039 940 1088 894T1171 792T1204 670Q1204 531
1111 434T863 263Q958 156 958 49Q958 -92 861 -190T618 -337T324 -385Q192 -385 84 -348T-25 -201Q-25 -142 5 -90T88 -5T205 27Q274 27 313 -6T352 -94Q352 -167 306 -226T188 -317Q198 -327 234 -336T313 -346Q384 -346 444 -316T539 -230T575 -100Q575 -36
539 9T441 104T352 178Q234 278 185 324T103 425T70 547Q70 686 163 783T411 954Q362 1009 339 1060T315 1167Q315 1308 412 1406T656 1553T950 1602Q1078 1602 1189 1563T1300 1415Q1300 1356 1269 1304T1185 1221T1069 1190Q998 1190 960 1225T922 1319Q922 1385
969 1444ZM881 443T881 468Q881 510 855 551T772 644T608 778Q510 855 454 909Q393 837 393 756Q393 713 418 671T501 575T666 438Q764 361 821 306Q858 348 874 418Q881 443 881 468Z" />
<glyph unicode="&#xa8;" glyph-name="dieresis" horiz-adv-x="799" d="M-23 1448T5 1493T79 1559T180 1581Q259 1581 296 1539T334 1421Q334 1354 305 1310T229 1246T129 1225Q51 1225 14 1266T-23 1380Q-23 1448 5 1493ZM465 1480T523 1530T668 1581Q746 1581
783 1539T821 1421Q821 1354 792 1310T717 1246T616 1225Q538 1225 502 1266T465 1380Q465 1480 523 1530Z" />
<glyph unicode="&#xa9;" glyph-name="copyright" horiz-adv-x="1847" d="M158 1008T267 1195T564 1492T973 1602Q1194 1602 1381 1493T1678 1196T1788 786Q1788 565 1679 378T1382 81T973 -29Q751 -29 564 80T268 377T158 786Q158 1008 267 1195ZM240 583T338
411T605 138T973 37Q1172 37 1340 138T1607 411T1706 786Q1706 990 1608 1162T1341 1435T973 1536Q773 1536 605 1435T339 1162T240 786Q240 583 338 411ZM1393 485T1338 406T1195 277T993 227Q770 227 635 360T500 786Q500 976 568 1102T754 1288T1026 1348Q1123
1348 1212 1320T1360 1230T1419 1073Q1419 1018 1394 973T1324 901T1223 874Q1134 874 1084 925T1034 1059Q1034 1133 1082 1188T1202 1264Q1183 1277 1151 1285T1085 1294Q1013 1294 970 1253T905 1108T883 815Q883 656 920 561T1014 428T1139 389Q1287 389 1386
588L1421 575Q1393 485 1338 406Z" />
<glyph unicode="&#xaa;" glyph-name="ordfeminine" horiz-adv-x="1196" d="M1206 979L1186 922Q1119 737 907 737Q717 737 717 898Q717 915 718 924Q663 819 591 778T430 737Q207 737 207 944Q207 1071 287 1196T494 1400T754 1479Q794 1479 818 1465T847 1408L862
1460Q1061 1460 1210 1479L1042 948Q1033 916 1033 901Q1033 864 1071 864Q1126 864 1149 928L1167 979H1206ZM830 1392T816 1411T782 1430Q740 1430 688 1360T598 1183T561 973Q561 862 606 862Q636 862 671 907T738 1027L831 1352Q830 1392 816 1411Z" />
<glyph unicode="&#xab;" glyph-name="guillemotleft" horiz-adv-x="1294" d="M783 1006T715 894T571 683T440 530Q472 478 501 378T547 167T563 -29H526Q407 135 289 266T31 510L41 551Q229 661 404 790T786 1092H823Q783 1006 715 894ZM1202 902T1107 752T944
530Q966 485 986 400T1018 220T1026 53H989Q871 203 772 310T553 510L563 551Q725 643 874 752T1208 1010H1245Q1202 902 1107 752Z" />
<glyph unicode="&#xac;" glyph-name="logicalnot" horiz-adv-x="1303" d="M1208 758L1087 338H1014L1116 696H164L182 758H1208Z" />
<glyph unicode="&#xad;" glyph-name="softhyphen" horiz-adv-x="1038" />
<glyph unicode="&#xae;" glyph-name="registered" horiz-adv-x="1384" d="M962 1602T1093 1525T1301 1317T1378 1030Q1378 875 1301 744T1093 536T807 459Q652 459 521 536T313 744T236 1030Q236 1185 313 1316T521 1525T807 1602Q962 1602 1093 1525ZM939 524T1050
592T1227 777T1292 1030Q1292 1167 1227 1283T1051 1467T807 1536Q674 1536 563 1468T387 1283T322 1030Q322 894 387 778T563 593T807 524Q939 524 1050 592ZM1124 711T1047 711Q902 711 887 803L860 950Q854 983 846 1000T820 1027T766 1041V827Q766 795 769
780T782 760T813 752V721Q784 721 748 722T668 723Q616 723 577 722T512 721V752Q533 754 542 759T555 780T559 827V1276Q559 1309 556 1324T543 1346T512 1354V1384Q545 1382 659 1382Q727 1382 771 1383T836 1384Q974 1384 1034 1344T1094 1223Q1094 1172 1044
1126T876 1060Q945 1054 985 1040T1043 1003T1069 940L1104 795Q1109 760 1130 760Q1142 760 1153 768L1165 745Q1124 711 1047 711ZM830 1077T860 1113T891 1217Q891 1283 869 1318T803 1354Q782 1354 774 1343T766 1303V1077H774Q830 1077 860 1113Z" />
<glyph unicode="&#xaf;" glyph-name="overscore" horiz-adv-x="741" d="M195 1407L207 1458H928L915 1407H195Z" />
<glyph unicode="0;" glyph-name="degree" horiz-adv-x="680" d="M602 1679T659 1649T750 1563T784 1434Q784 1359 750 1303T659 1217T535 1186Q468 1186 412 1216T321 1303T287 1434Q287 1507 321 1563T411 1649T535 1679Q602 1679 659 1649ZM583 1227T629
1251T705 1322T735 1434Q735 1497 705 1543T629 1614T535 1638Q487 1638 441 1614T366 1544T336 1434Q336 1369 365 1322T440 1251T535 1227Q583 1227 629 1251Z" />
<glyph unicode="1;" glyph-name="plusminus" horiz-adv-x="1241" d="M977 62L959 0H-67L-49 62H977ZM774 1241H848L711 758H1186L1167 696H692L555 215H481L618 696H141L160 758H637L774 1241Z" />
<glyph unicode="2;" glyph-name="twosuperior" horiz-adv-x="750" d="M328 1457T419 1500T629 1544Q719 1544 773 1516T827 1430Q827 1357 753 1296T568 1171T426 1085Q460 1085 516 1074T609 1056T674 1049Q750 1049 750 1102Q750 1122 741 1139L776 1153Q817
1092 817 1030Q817 966 769 927T625 887Q593 887 561 891T449 908T307 924Q258 926 228 921T147 895L156 932Q183 952 298 1032T499 1206T584 1380Q584 1462 489 1462Q388 1462 295 1368L266 1391Q328 1457 419 1500Z" />
<glyph unicode="3;" glyph-name="threesuperior" horiz-adv-x="713" d="M335 1451T431 1497T635 1544Q728 1544 784 1516T840 1434Q840 1379 782 1331T639 1249T473 1200Q778 1197 778 1049Q778 953 667 880T392 765T70 713V750Q183 759 289 799T464 908T532
1065Q532 1156 461 1171Q422 1151 395 1151Q380 1151 369 1157T358 1178Q358 1215 449 1212Q516 1243 557 1290T598 1386Q598 1426 576 1445T516 1464Q414 1464 305 1366L276 1391Q335 1451 431 1497Z" />
<glyph unicode="4;" glyph-name="acute" horiz-adv-x="457" d="M320 1342T373 1449T453 1606T522 1696Q548 1722 583 1738T653 1754Q708 1754 748 1714Q782 1680 782 1637Q782 1576 715 1507Q683 1475 641 1448T487 1357T281 1227L260 1247Q320 1342 373 1449Z" />
<glyph unicode="6;" glyph-name="paragraph" horiz-adv-x="1544" d="M1139 -114T978 -249T514 -385Q361 -385 269 -342T176 -203Q176 -123 232 -74T389 -25Q480 -25 538 -63T596 -174Q596 -290 463 -346Q483 -350 510 -350Q566 -350 603 -318T671 -217T737
-27Q398 -27 242 104T86 469Q86 737 214 962T564 1320T1051 1452Q1131 1452 1265 1449T1460 1446Q1628 1446 1706 1450L1696 1411Q1631 1408 1593 1393T1535 1349T1501 1272L1204 133Q1139 -114 978 -249ZM803 504T787 359T770 137Q770 98 774 98Q826 291 965 814T1108
1343Q1100 1343 1059 1260T963 1045T864 770Q725 770 597 760T387 738T303 719Q302 711 376 700T574 679T838 670Q803 504 787 359Z" />
<glyph unicode="7;" glyph-name="periodcentered" horiz-adv-x="635" d="M111 581T141 630T223 708T340 736Q419 736 460 701T502 596Q502 542 471 493T387 414T271 383Q192 383 152 417T111 518Q111 581 141 630Z" />
<glyph unicode="8;" glyph-name="cedilla" horiz-adv-x="467" d="M234 -113T287 -113Q352 -113 393 -135T434 -201Q434 -265 378 -306T233 -366T43 -385Q-67 -385 -154 -348L-141 -315Q-81 -336 -16 -336Q43 -336 97 -318T152 -250Q152 -228 136 -216T94 -203Q59
-203 31 -217L203 0H262L160 -137Q234 -113 287 -113Z" />
<glyph unicode="9;" glyph-name="onesuperior" horiz-adv-x="569" d="M264 895L414 1352Q283 1312 213 1298L223 1337Q333 1365 415 1398T551 1463T676 1542H715L508 895H264Z" />
<glyph unicode="a;" glyph-name="ordmasculine" horiz-adv-x="1116" d="M213 1109T281 1218T481 1403T791 1479Q968 1479 1068 1410T1169 1202Q1169 1107 1101 998T902 814T592 739Q414 739 314 808T213 1014Q213 1109 281 1218ZM728 1442T673 1357T581 1143T545
895Q545 776 602 776Q655 776 710 861T802 1074T838 1323Q838 1442 780 1442Q728 1442 673 1357Z" />
<glyph unicode="b;" glyph-name="guillemotright" horiz-adv-x="1292" d="M850 925T968 794T1227 551L1217 510Q1026 400 851 272T469 -29H432Q472 56 540 167T683 378T813 530Q782 583 754 683T708 896T692 1092H729Q850 925 968 794ZM386 857T484 750T702
551L692 510Q529 417 377 307T49 53H12Q56 161 149 310T309 530Q288 576 268 662T237 843T229 1010H266Q386 857 484 750Z" />
<glyph unicode="c;" glyph-name="onequarter" horiz-adv-x="1452" d="M-201 -113L-232 -86L1474 1688L1505 1661L-201 -113ZM264 895L414 1352Q283 1312 213 1298L223 1337Q333 1365 415 1398T551 1463T676 1542H715L508 895H264ZM984 129L939 -16H840L794
-174H605L651 -16H247L257 20L995 649H1033L882 129H984ZM776 413L440 129H693L776 413Z" />
<glyph unicode="d;" glyph-name="onehalf" horiz-adv-x="1292" d="M-201 -113L-232 -86L1474 1688L1505 1661L-201 -113ZM264 895L414 1352Q283 1312 213 1298L223 1337Q333 1365 415 1398T551 1463T676 1542H715L508 895H264ZM651 562T742 605T952 649Q1042
649 1096 621T1150 535Q1150 462 1076 401T891 276T749 190Q783 190 839 179T932 161T997 154Q1073 154 1073 207Q1073 227 1064 244L1099 258Q1140 197 1140 135Q1140 71 1092 32T948 -8Q916 -8 884 -4T772 13T630 29Q581 31 551 26T470 0L479 37Q506 57 621 137T822
311T907 485Q907 567 812 567Q711 567 618 473L589 496Q651 562 742 605Z" />
<glyph unicode="e;" glyph-name="threequarters" horiz-adv-x="1595" d="M4 -113L-27 -86L1679 1688L1710 1661L4 -113ZM335 1451T431 1497T635 1544Q728 1544 784 1516T840 1434Q840 1379 782 1331T639 1249T473 1200Q778 1197 778 1049Q778 953 667 880T392
765T70 713V750Q183 759 289 799T464 908T532 1065Q532 1156 461 1171Q422 1151 395 1151Q380 1151 369 1157T358 1178Q358 1215 449 1212Q516 1243 557 1290T598 1386Q598 1426 576 1445T516 1464Q414 1464 305 1366L276 1391Q335 1451 431 1497ZM1189 129L1144
-16H1045L999 -174H810L856 -16H452L462 20L1200 649H1238L1087 129H1189ZM981 413L645 129H898L981 413Z" />
<glyph unicode="f;" glyph-name="questiondown" horiz-adv-x="1057" d="M440 937T470 986T552 1064T669 1092Q748 1092 789 1057T831 952Q831 898 800 849T716 770T600 739Q521 739 481 773T440 874Q440 937 470 986ZM549 -334T598 -315Q527 -307 479 -263T430
-156Q430 -111 455 -74T523 -17T616 4Q686 4 736 -36T786 -152Q786 -239 719 -291T551 -364T342 -385Q210 -385 112 -356T-40 -270T-94 -137Q-94 -78 -61 -29T32 67T213 195Q311 261 363 302T443 388T471 485Q471 602 340 602Q273 602 223 582Q256 580 286 563T336
515T356 446Q356 406 334 374T272 324T184 305Q120 305 81 338T41 432Q41 512 107 560T268 629T461 649Q575 649 667 623T812 547T866 428Q866 367 825 311T726 210T575 102Q467 30 413 -12T330 -97T301 -193Q301 -263 347 -298T469 -334Q549 -334 598 -315Z" />
<glyph unicode="0;" glyph-name="Agrave" horiz-adv-x="1370" d="M1138 105T1167 74T1233 41L1225 0Q1105 6 879 6Q641 6 530 0L539 41Q605 44 642 56T697 99T716 187Q716 204 715 213L697 549H295L96 268Q48 198 48 151Q48 55 236 41L227 0Q16 6 -63 6Q-133
6 -197 0L-188 41Q-148 52 -114 77T-41 150T61 285L897 1460Q930 1456 976 1456Q1022 1456 1051 1460L1133 172Q1138 105 1167 74ZM670 1079L324 590H695L670 1079ZM1011 1605T950 1618T796 1646T656 1686Q619 1705 597 1737T575 1808Q575 1836 588 1862Q606 1899
641 1918T717 1938Q752 1938 781 1923Q816 1907 841 1883T937 1774T1104 1606L1090 1581Q1011 1605 950 1618Z" />
<glyph unicode="1;" glyph-name="Aacute" horiz-adv-x="1370" d="M1138 105T1167 74T1233 41L1225 0Q1105 6 879 6Q641 6 530 0L539 41Q605 44 642 56T697 99T716 187Q716 204 715 213L697 549H295L96 268Q48 198 48 151Q48 55 236 41L227 0Q16 6 -63 6Q-133
6 -197 0L-188 41Q-148 52 -114 77T-41 150T61 285L897 1460Q930 1456 976 1456Q1022 1456 1051 1460L1133 172Q1138 105 1167 74ZM670 1079L324 590H695L670 1079ZM926 1680T1008 1768T1130 1895T1223 1962Q1266 1986 1317 1986Q1405 1986 1444 1915Q1459 1886
1459 1860Q1459 1785 1352 1724Q1313 1703 1265 1689T1091 1646T856 1581L842 1606Q926 1680 1008 1768Z" />
<glyph unicode="2;" glyph-name="Acircumflex" horiz-adv-x="1370" d="M1138 105T1167 74T1233 41L1225 0Q1105 6 879 6Q641 6 530 0L539 41Q605 44 642 56T697 99T716 187Q716 204 715 213L697 549H295L96 268Q48 198 48 151Q48 55 236 41L227 0Q16 6 -63
6Q-133 6 -197 0L-188 41Q-148 52 -114 77T-41 150T61 285L897 1460Q930 1456 976 1456Q1022 1456 1051 1460L1133 172Q1138 105 1167 74ZM670 1079L324 590H695L670 1079ZM1272 1601T1171 1626T975 1688Q775 1620 515 1577L504 1606Q686 1663 847 1758T1108 1958H1145Q1186
1832 1249 1751T1430 1606L1422 1577Q1272 1601 1171 1626Z" />
<glyph unicode="3;" glyph-name="Atilde" horiz-adv-x="1370" d="M1138 105T1167 74T1233 41L1225 0Q1105 6 879 6Q641 6 530 0L539 41Q605 44 642 56T697 99T716 187Q716 204 715 213L697 549H295L96 268Q48 198 48 151Q48 55 236 41L227 0Q16 6 -63 6Q-133
6 -197 0L-188 41Q-148 52 -114 77T-41 150T61 285L897 1460Q930 1456 976 1456Q1022 1456 1051 1460L1133 172Q1138 105 1167 74ZM670 1079L324 590H695L670 1079ZM590 1776T694 1859T916 1942Q993 1942 1044 1921T1175 1846T1328 1792Q1376 1792 1416 1820T1496
1911L1533 1901Q1471 1732 1366 1650T1144 1567Q1067 1567 1016 1588T885 1662T732 1716Q683 1716 643 1688T564 1597L527 1608Q590 1776 694 1859Z" />
<glyph unicode="4;" glyph-name="Adieresis" horiz-adv-x="1370" d="M1138 105T1167 74T1233 41L1225 0Q1105 6 879 6Q641 6 530 0L539 41Q605 44 642 56T697 99T716 187Q716 204 715 213L697 549H295L96 268Q48 198 48 151Q48 55 236 41L227 0Q16 6 -63 6Q-133
6 -197 0L-188 41Q-148 52 -114 77T-41 150T61 285L897 1460Q930 1456 976 1456Q1022 1456 1051 1460L1133 172Q1138 105 1167 74ZM670 1079L324 590H695L670 1079ZM551 1784T579 1829T653 1895T754 1917Q832 1917 870 1874T908 1757Q908 1690 879 1646T803 1582T703
1561Q625 1561 588 1602T551 1716Q551 1784 579 1829ZM1080 1784T1108 1829T1181 1895T1282 1917Q1360 1917 1398 1874T1436 1757Q1436 1690 1407 1646T1332 1582T1231 1561Q1153 1561 1117 1602T1080 1716Q1080 1784 1108 1829Z" />
<glyph unicode="5;" glyph-name="Aring" horiz-adv-x="1370" d="M1138 105T1167 74T1233 41L1225 0Q1105 6 879 6Q641 6 530 0L539 41Q605 44 642 56T697 99T716 187Q716 204 715 213L697 549H295L96 268Q48 198 48 151Q48 55 236 41L227 0Q16 6 -63 6Q-133
6 -197 0L-188 41Q-148 52 -114 77T-41 150T61 285L897 1460Q930 1456 976 1456Q1022 1456 1051 1460L1133 172Q1138 105 1167 74ZM670 1079L324 590H695L670 1079ZM1100 1935T1149 1913T1227 1849T1256 1753Q1256 1690 1218 1637T1118 1552T984 1520Q924 1520
877 1542T802 1606T775 1704Q775 1768 810 1821T905 1904T1039 1935Q1100 1935 1149 1913ZM1047 1563T1095 1588T1173 1656T1203 1749Q1203 1795 1178 1827T1114 1876T1033 1892Q979 1892 932 1866T858 1796T830 1704Q830 1660 853 1628T914 1580T994 1563Q1047
1563 1095 1588Z" />
<glyph unicode="6;" glyph-name="AE" horiz-adv-x="1864" d="M1274 1444T1550 1444Q1845 1444 1974 1450Q1948 1379 1926 1304T1896 1208Q1878 1147 1870 1081H1825Q1840 1167 1840 1226Q1840 1322 1798 1362T1659 1403H1571Q1500 1403 1465 1391T1408 1345T1366
1233L1238 750H1356Q1414 750 1452 780T1514 856T1567 979H1612Q1586 900 1569 831T1542 729Q1517 637 1489 479H1444Q1444 499 1449 542T1454 605Q1454 651 1432 678T1348 709H1227L1096 217Q1078 147 1078 117Q1078 88 1091 73T1133 53T1212 47H1321Q1420 47
1483 81T1593 192T1688 410H1733Q1716 368 1690 262Q1658 154 1636 0Q1497 6 1174 6Q698 6 461 0L469 41Q543 44 579 57T638 105T680 217L811 709H488L61 193Q3 125 3 96Q3 51 129 41V0Q74 6 -47 6Q-136 6 -184 0V41Q-121 44 -8 172L966 1351Q960 1383 930 1394T829
1409L840 1450L1044 1446L1157 1583H1210L1097 1446Q1274 1444 1550 1444ZM950 1233Q957 1262 962 1283L521 750H822L950 1233Z" />
<glyph unicode="7;" glyph-name="Ccedilla" horiz-adv-x="1450" d="M1505 1273T1442 979H1397Q1417 1097 1417 1156Q1417 1246 1382 1305Q1344 1370 1290 1395T1157 1421Q996 1421 856 1288T631 932T547 457Q547 250 617 150T815 49Q884 49 956 80T1081 168Q1135
226 1175 297T1266 492H1311Q1214 137 1190 0H1145Q1151 44 1151 70Q1151 122 1125 122Q1109 122 1083 104Q891 -29 674 -29Q369 -29 223 107T76 496Q76 742 211 969T585 1337T1114 1479Q1226 1479 1295 1444T1417 1346Q1432 1328 1447 1328Q1485 1328 1530 1450H1573Q1505
1273 1442 979ZM725 -92T790 -92Q863 -92 905 -119T948 -201Q948 -265 895 -306T758 -366T577 -385Q508 -385 445 -374T340 -348L352 -315Q375 -321 426 -328T518 -336Q686 -336 686 -250Q686 -203 629 -203Q597 -203 565 -217L665 14H721L663 -117Q725 -92 790
-92Z" />
<glyph unicode="8;" glyph-name="Egrave" horiz-adv-x="1305" d="M516 1444T991 1444Q1286 1444 1415 1450Q1365 1321 1337 1208Q1326 1162 1311 1081H1266Q1267 1200 1240 1271T1158 1372T1018 1403H1012Q941 1403 906 1391T849 1345T807 1233L679 750H715Q779
750 838 781T941 865T1008 979H1053Q1027 900 1010 831T983 729Q956 627 930 479H885Q885 533 866 585T803 673T686 709H668L537 217Q519 147 519 117Q519 88 532 73T574 53T653 47H680Q780 47 855 81T996 194T1128 410H1174Q1160 374 1130 262Q1098 145 1077 0Q938
6 614 6Q139 6 -98 0L-90 41Q-16 44 20 57T79 105T121 217L391 1233Q408 1298 408 1331Q408 1362 395 1378T352 1400T270 1409L281 1450Q516 1444 991 1444ZM921 1605T860 1618T706 1646T566 1686Q529 1705 507 1737T485 1808Q485 1836 498 1862Q516 1899 551 1918T627
1938Q662 1938 691 1923Q726 1907 751 1883T847 1774T1014 1606L1000 1581Q921 1605 860 1618Z" />
<glyph unicode="9;" glyph-name="Eacute" horiz-adv-x="1305" d="M516 1444T991 1444Q1286 1444 1415 1450Q1365 1321 1337 1208Q1326 1162 1311 1081H1266Q1267 1200 1240 1271T1158 1372T1018 1403H1012Q941 1403 906 1391T849 1345T807 1233L679 750H715Q779
750 838 781T941 865T1008 979H1053Q1027 900 1010 831T983 729Q956 627 930 479H885Q885 533 866 585T803 673T686 709H668L537 217Q519 147 519 117Q519 88 532 73T574 53T653 47H680Q780 47 855 81T996 194T1128 410H1174Q1160 374 1130 262Q1098 145 1077 0Q938
6 614 6Q139 6 -98 0L-90 41Q-16 44 20 57T79 105T121 217L391 1233Q408 1298 408 1331Q408 1362 395 1378T352 1400T270 1409L281 1450Q516 1444 991 1444ZM836 1680T918 1768T1040 1895T1133 1962Q1176 1986 1227 1986Q1315 1986 1354 1915Q1369 1886 1369 1860Q1369
1785 1262 1724Q1223 1703 1175 1689T1001 1646T766 1581L752 1606Q836 1680 918 1768Z" />
<glyph unicode="a;" glyph-name="Ecircumflex" horiz-adv-x="1305" d="M516 1444T991 1444Q1286 1444 1415 1450Q1365 1321 1337 1208Q1326 1162 1311 1081H1266Q1267 1200 1240 1271T1158 1372T1018 1403H1012Q941 1403 906 1391T849 1345T807 1233L679 750H715Q779
750 838 781T941 865T1008 979H1053Q1027 900 1010 831T983 729Q956 627 930 479H885Q885 533 866 585T803 673T686 709H668L537 217Q519 147 519 117Q519 88 532 73T574 53T653 47H680Q780 47 855 81T996 194T1128 410H1174Q1160 374 1130 262Q1098 145 1077 0Q938
6 614 6Q139 6 -98 0L-90 41Q-16 44 20 57T79 105T121 217L391 1233Q408 1298 408 1331Q408 1362 395 1378T352 1400T270 1409L281 1450Q516 1444 991 1444ZM1182 1601T1081 1626T885 1688Q685 1620 425 1577L414 1606Q596 1663 757 1758T1018 1958H1055Q1096 1832
1159 1751T1340 1606L1332 1577Q1182 1601 1081 1626Z" />
<glyph unicode="b;" glyph-name="Edieresis" horiz-adv-x="1305" d="M516 1444T991 1444Q1286 1444 1415 1450Q1365 1321 1337 1208Q1326 1162 1311 1081H1266Q1267 1200 1240 1271T1158 1372T1018 1403H1012Q941 1403 906 1391T849 1345T807 1233L679 750H715Q779
750 838 781T941 865T1008 979H1053Q1027 900 1010 831T983 729Q956 627 930 479H885Q885 533 866 585T803 673T686 709H668L537 217Q519 147 519 117Q519 88 532 73T574 53T653 47H680Q780 47 855 81T996 194T1128 410H1174Q1160 374 1130 262Q1098 145 1077 0Q938
6 614 6Q139 6 -98 0L-90 41Q-16 44 20 57T79 105T121 217L391 1233Q408 1298 408 1331Q408 1362 395 1378T352 1400T270 1409L281 1450Q516 1444 991 1444ZM461 1784T489 1829T563 1895T664 1917Q742 1917 780 1874T818 1757Q818 1690 789 1646T713 1582T613 1561Q535
1561 498 1602T461 1716Q461 1784 489 1829ZM990 1784T1018 1829T1091 1895T1192 1917Q1270 1917 1308 1874T1346 1757Q1346 1690 1317 1646T1242 1582T1141 1561Q1063 1561 1027 1602T990 1716Q990 1784 1018 1829Z" />
<glyph unicode="c;" glyph-name="Igrave" horiz-adv-x="864" d="M519 147T519 117Q519 87 532 72T575 50T657 41L649 0Q517 6 266 6Q24 6 -96 0L-86 41Q-15 44 21 57T79 105T121 217L391 1233Q408 1298 408 1331Q408 1362 395 1378T352 1400T270 1409L281
1450Q394 1444 643 1444Q875 1444 1028 1450L1018 1409Q943 1406 907 1393T849 1345T807 1233L537 217Q519 147 519 117ZM749 1605T688 1618T534 1646T394 1686Q357 1705 335 1737T313 1808Q313 1836 326 1862Q344 1899 379 1918T455 1938Q490 1938 519 1923Q554
1907 579 1883T675 1774T842 1606L828 1581Q749 1605 688 1618Z" />
<glyph unicode="d;" glyph-name="Iacute" horiz-adv-x="864" d="M519 147T519 117Q519 87 532 72T575 50T657 41L649 0Q517 6 266 6Q24 6 -96 0L-86 41Q-15 44 21 57T79 105T121 217L391 1233Q408 1298 408 1331Q408 1362 395 1378T352 1400T270 1409L281
1450Q394 1444 643 1444Q875 1444 1028 1450L1018 1409Q943 1406 907 1393T849 1345T807 1233L537 217Q519 147 519 117ZM664 1680T746 1768T868 1895T961 1962Q1004 1986 1055 1986Q1143 1986 1182 1915Q1197 1886 1197 1860Q1197 1785 1090 1724Q1051 1703 1003
1689T829 1646T594 1581L580 1606Q664 1680 746 1768Z" />
<glyph unicode="e;" glyph-name="Icircumflex" horiz-adv-x="864" d="M519 147T519 117Q519 87 532 72T575 50T657 41L649 0Q517 6 266 6Q24 6 -96 0L-86 41Q-15 44 21 57T79 105T121 217L391 1233Q408 1298 408 1331Q408 1362 395 1378T352 1400T270 1409L281
1450Q394 1444 643 1444Q875 1444 1028 1450L1018 1409Q943 1406 907 1393T849 1345T807 1233L537 217Q519 147 519 117ZM1010 1601T909 1626T713 1688Q513 1620 253 1577L242 1606Q424 1663 585 1758T846 1958H883Q924 1832 987 1751T1168 1606L1160 1577Q1010
1601 909 1626Z" />
<glyph unicode="f;" glyph-name="Idieresis" horiz-adv-x="864" d="M519 147T519 117Q519 87 532 72T575 50T657 41L649 0Q517 6 266 6Q24 6 -96 0L-86 41Q-15 44 21 57T79 105T121 217L391 1233Q408 1298 408 1331Q408 1362 395 1378T352 1400T270 1409L281
1450Q394 1444 643 1444Q875 1444 1028 1450L1018 1409Q943 1406 907 1393T849 1345T807 1233L537 217Q519 147 519 117ZM289 1784T317 1829T391 1895T492 1917Q570 1917 608 1874T646 1757Q646 1690 617 1646T541 1582T441 1561Q363 1561 326 1602T289 1716Q289
1784 317 1829ZM818 1784T846 1829T919 1895T1020 1917Q1098 1917 1136 1874T1174 1757Q1174 1690 1145 1646T1070 1582T969 1561Q891 1561 855 1602T818 1716Q818 1784 846 1829Z" />
<glyph unicode="&#xd0;" glyph-name="Eth" horiz-adv-x="1642" d="M442 1443T597 1443L672 1444Q843 1450 975 1450Q1282 1450 1451 1320T1620 936Q1620 714 1514 500T1174 143T584 0Q541 0 451 3T260 6Q35 6 -88 0L-82 41Q-12 44 23 57T81 105T123 217L391 1233Q404
1282 404 1313Q404 1357 375 1381T272 1409L279 1450Q442 1443 597 1443ZM514 120T514 91Q514 61 533 49T600 37Q780 37 916 186T1125 562T1198 1010Q1198 1413 938 1413Q892 1413 873 1401T843 1361T807 1237L539 213Q514 120 514 91ZM112 706L125 758H1009L997
706H112Z" />
<glyph unicode="&#xd1;" glyph-name="Ntilde" horiz-adv-x="1763" d="M1405 1229T1532 1413Q1622 1544 1753 1544Q1824 1544 1878 1515T1963 1436T1993 1325Q1993 1261 1963 1212T1880 1137T1763 1110Q1679 1110 1630 1150T1581 1262Q1581 1322 1608 1371T1684
1451T1794 1493Q1778 1509 1743 1509Q1693 1509 1649 1479T1569 1397Q1478 1261 1380 920T1157 -10H1112L576 965Q403 134 285 -23Q240 -83 190 -117T66 -152Q-5 -152 -59 -123T-144 -44T-174 68Q-174 132 -144 181T-61 256T55 283Q139 283 188 243T238 131Q238
71 210 22T134 -58T25 -100Q40 -117 76 -117Q179 -117 252 -2Q329 118 410 428T588 1229V1233Q600 1290 600 1324Q600 1358 586 1375T538 1400T442 1409L453 1450Q517 1444 635 1444Q730 1444 801 1450L1248 580Q1405 1229 1532 1413ZM774 1776T878 1859T1100 1942Q1177
1942 1228 1921T1359 1846T1512 1792Q1560 1792 1600 1820T1680 1911L1717 1901Q1655 1732 1550 1650T1328 1567Q1251 1567 1200 1588T1069 1662T916 1716Q867 1716 827 1688T748 1597L711 1608Q774 1776 878 1859Z" />
<glyph unicode="&#xd2;" glyph-name="Ograve" horiz-adv-x="1657" d="M70 695T194 932T543 1324T1047 1479Q1235 1479 1371 1421T1580 1252T1653 985Q1653 754 1528 518T1178 126T674 -29Q486 -29 350 29T142 197T70 463Q70 695 194 932ZM899 1442T779 1295T586
913T512 436Q512 305 535 208T599 60T692 8Q821 8 941 155T1134 537T1208 1014Q1208 1145 1185 1242T1122 1390T1028 1442Q899 1442 779 1295ZM1140 1605T1079 1618T925 1646T785 1686Q748 1705 726 1737T704 1808Q704 1836 717 1862Q735 1899 770 1918T846 1938Q881
1938 910 1923Q945 1907 970 1883T1066 1774T1233 1606L1219 1581Q1140 1605 1079 1618Z" />
<glyph unicode="&#xd3;" glyph-name="Oacute" horiz-adv-x="1657" d="M70 695T194 932T543 1324T1047 1479Q1235 1479 1371 1421T1580 1252T1653 985Q1653 754 1528 518T1178 126T674 -29Q486 -29 350 29T142 197T70 463Q70 695 194 932ZM899 1442T779 1295T586
913T512 436Q512 305 535 208T599 60T692 8Q821 8 941 155T1134 537T1208 1014Q1208 1145 1185 1242T1122 1390T1028 1442Q899 1442 779 1295ZM1055 1680T1137 1768T1259 1895T1352 1962Q1395 1986 1446 1986Q1534 1986 1573 1915Q1588 1886 1588 1860Q1588 1785
1481 1724Q1442 1703 1394 1689T1220 1646T985 1581L971 1606Q1055 1680 1137 1768Z" />
<glyph unicode="&#xd4;" glyph-name="Ocircumflex" horiz-adv-x="1657" d="M70 695T194 932T543 1324T1047 1479Q1235 1479 1371 1421T1580 1252T1653 985Q1653 754 1528 518T1178 126T674 -29Q486 -29 350 29T142 197T70 463Q70 695 194 932ZM899 1442T779 1295T586
913T512 436Q512 305 535 208T599 60T692 8Q821 8 941 155T1134 537T1208 1014Q1208 1145 1185 1242T1122 1390T1028 1442Q899 1442 779 1295ZM1401 1601T1300 1626T1104 1688Q904 1620 644 1577L633 1606Q815 1663 976 1758T1237 1958H1274Q1315 1832 1378 1751T1559
1606L1551 1577Q1401 1601 1300 1626Z" />
<glyph unicode="&#xd5;" glyph-name="Otilde" horiz-adv-x="1657" d="M70 695T194 932T543 1324T1047 1479Q1235 1479 1371 1421T1580 1252T1653 985Q1653 754 1528 518T1178 126T674 -29Q486 -29 350 29T142 197T70 463Q70 695 194 932ZM899 1442T779 1295T586
913T512 436Q512 305 535 208T599 60T692 8Q821 8 941 155T1134 537T1208 1014Q1208 1145 1185 1242T1122 1390T1028 1442Q899 1442 779 1295ZM719 1776T823 1859T1045 1942Q1122 1942 1173 1921T1304 1846T1457 1792Q1505 1792 1545 1820T1625 1911L1662 1901Q1600
1732 1495 1650T1273 1567Q1196 1567 1145 1588T1014 1662T861 1716Q812 1716 772 1688T693 1597L656 1608Q719 1776 823 1859Z" />
<glyph unicode="&#xd6;" glyph-name="Odieresis" horiz-adv-x="1657" d="M70 695T194 932T543 1324T1047 1479Q1235 1479 1371 1421T1580 1252T1653 985Q1653 754 1528 518T1178 126T674 -29Q486 -29 350 29T142 197T70 463Q70 695 194 932ZM899 1442T779 1295T586
913T512 436Q512 305 535 208T599 60T692 8Q821 8 941 155T1134 537T1208 1014Q1208 1145 1185 1242T1122 1390T1028 1442Q899 1442 779 1295ZM680 1784T708 1829T782 1895T883 1917Q961 1917 999 1874T1037 1757Q1037 1690 1008 1646T932 1582T832 1561Q754 1561
717 1602T680 1716Q680 1784 708 1829ZM1209 1784T1237 1829T1310 1895T1411 1917Q1489 1917 1527 1874T1565 1757Q1565 1690 1536 1646T1461 1582T1360 1561Q1282 1561 1246 1602T1209 1716Q1209 1784 1237 1829Z" />
<glyph unicode="&#xd7;" glyph-name="multiply" horiz-adv-x="993" d="M227 1085L281 1122L532 764L997 1126L1030 1081L565 721L821 367L770 330L516 684L57 328L27 373L483 727L227 1085Z" />
<glyph unicode="&#xd8;" glyph-name="Oslash" horiz-adv-x="1657" d="M1653 1226T1653 985Q1653 754 1528 518T1178 126T674 -29Q424 -29 269 72L53 -150L18 -121L233 98Q70 227 70 463Q70 695 194 932T543 1324T1047 1479Q1293 1479 1447 1381L1640 1583L1671
1556L1482 1357Q1653 1226 1653 985ZM1187 1284T1141 1363T1028 1442Q899 1442 779 1295T586 913T512 436Q512 378 517 326L1202 1142Q1187 1284 1141 1363ZM542 144T587 76T692 8Q821 8 941 155T1134 537T1208 1014Q1208 1049 1206 1082L524 267Q542 144 587 76Z"
/>
<glyph unicode="&#xd9;" glyph-name="Ugrave" horiz-adv-x="1438" d="M1378 1219T1378 1281Q1378 1322 1363 1347T1313 1386T1219 1409L1231 1450Q1311 1444 1458 1444Q1566 1444 1630 1450L1618 1409Q1551 1395 1513 1365T1448 1274T1389 1090L1262 596Q1187
311 1061 162Q986 74 876 23T641 -29Q462 -29 349 23T186 166Q144 244 144 349Q144 447 182 590L352 1233Q369 1298 369 1331Q369 1362 356 1378T313 1400T231 1409L244 1450Q364 1444 631 1444Q845 1444 989 1450L977 1409Q902 1406 866 1393T808 1345T766 1233L586
555Q535 364 535 246Q535 43 680 43Q895 43 1018 182T1208 573L1333 1049Q1378 1219 1378 1281ZM1058 1605T997 1618T843 1646T703 1686Q666 1705 644 1737T622 1808Q622 1836 635 1862Q653 1899 688 1918T764 1938Q799 1938 828 1923Q863 1907 888 1883T984 1774T1151
1606L1137 1581Q1058 1605 997 1618Z" />
<glyph unicode="&#xda;" glyph-name="Uacute" horiz-adv-x="1438" d="M1378 1219T1378 1281Q1378 1322 1363 1347T1313 1386T1219 1409L1231 1450Q1311 1444 1458 1444Q1566 1444 1630 1450L1618 1409Q1551 1395 1513 1365T1448 1274T1389 1090L1262 596Q1187
311 1061 162Q986 74 876 23T641 -29Q462 -29 349 23T186 166Q144 244 144 349Q144 447 182 590L352 1233Q369 1298 369 1331Q369 1362 356 1378T313 1400T231 1409L244 1450Q364 1444 631 1444Q845 1444 989 1450L977 1409Q902 1406 866 1393T808 1345T766 1233L586
555Q535 364 535 246Q535 43 680 43Q895 43 1018 182T1208 573L1333 1049Q1378 1219 1378 1281ZM973 1680T1055 1768T1177 1895T1270 1962Q1313 1986 1364 1986Q1452 1986 1491 1915Q1506 1886 1506 1860Q1506 1785 1399 1724Q1360 1703 1312 1689T1138 1646T903
1581L889 1606Q973 1680 1055 1768Z" />
<glyph unicode="&#xdb;" glyph-name="Ucircumflex" horiz-adv-x="1438" d="M1378 1219T1378 1281Q1378 1322 1363 1347T1313 1386T1219 1409L1231 1450Q1311 1444 1458 1444Q1566 1444 1630 1450L1618 1409Q1551 1395 1513 1365T1448 1274T1389 1090L1262 596Q1187
311 1061 162Q986 74 876 23T641 -29Q462 -29 349 23T186 166Q144 244 144 349Q144 447 182 590L352 1233Q369 1298 369 1331Q369 1362 356 1378T313 1400T231 1409L244 1450Q364 1444 631 1444Q845 1444 989 1450L977 1409Q902 1406 866 1393T808 1345T766 1233L586
555Q535 364 535 246Q535 43 680 43Q895 43 1018 182T1208 573L1333 1049Q1378 1219 1378 1281ZM1319 1601T1218 1626T1022 1688Q822 1620 562 1577L551 1606Q733 1663 894 1758T1155 1958H1192Q1233 1832 1296 1751T1477 1606L1469 1577Q1319 1601 1218 1626Z"
/>
<glyph unicode="&#xdc;" glyph-name="Udieresis" horiz-adv-x="1438" d="M1378 1219T1378 1281Q1378 1322 1363 1347T1313 1386T1219 1409L1231 1450Q1311 1444 1458 1444Q1566 1444 1630 1450L1618 1409Q1551 1395 1513 1365T1448 1274T1389 1090L1262 596Q1187
311 1061 162Q986 74 876 23T641 -29Q462 -29 349 23T186 166Q144 244 144 349Q144 447 182 590L352 1233Q369 1298 369 1331Q369 1362 356 1378T313 1400T231 1409L244 1450Q364 1444 631 1444Q845 1444 989 1450L977 1409Q902 1406 866 1393T808 1345T766 1233L586
555Q535 364 535 246Q535 43 680 43Q895 43 1018 182T1208 573L1333 1049Q1378 1219 1378 1281ZM598 1784T626 1829T700 1895T801 1917Q879 1917 917 1874T955 1757Q955 1690 926 1646T850 1582T750 1561Q672 1561 635 1602T598 1716Q598 1784 626 1829ZM1127 1784T1155
1829T1228 1895T1329 1917Q1407 1917 1445 1874T1483 1757Q1483 1690 1454 1646T1379 1582T1278 1561Q1200 1561 1164 1602T1127 1716Q1127 1784 1155 1829Z" />
<glyph unicode="&#xdd;" glyph-name="Yacute" horiz-adv-x="1589" d="M236 1365T327 1422T539 1479Q691 1479 773 1399T893 1172T963 756Q1091 1151 1266 1356Q1371 1479 1509 1479Q1580 1479 1634 1450T1719 1371T1749 1260Q1749 1196 1719 1147T1636 1071T1520
1044Q1436 1044 1387 1084T1337 1196Q1337 1256 1365 1305T1441 1385T1550 1427Q1535 1444 1499 1444Q1466 1444 1436 1433T1368 1395Q1315 1356 1242 1249T1093 977T963 609L864 217Q853 171 853 144Q853 103 872 82T927 52T1026 41L1016 0Q887 6 598 6Q347 6
227 0L238 41Q312 44 349 57T408 105T449 217L554 636Q536 803 504 954T426 1204T322 1303Q286 1303 265 1276T229 1206L195 1102H150L193 1233Q236 1365 327 1422ZM952 1680T1034 1768T1156 1895T1249 1962Q1292 1986 1343 1986Q1431 1986 1470 1915Q1485 1886
1485 1860Q1485 1785 1378 1724Q1339 1703 1291 1689T1117 1646T882 1581L868 1606Q952 1680 1034 1768Z" />
<glyph unicode="&#xde;" glyph-name="Thorn" horiz-adv-x="1430" d="M519 147T519 117Q519 87 532 72T575 50T657 41L649 0Q517 6 266 6Q24 6 -96 0L-86 41Q-15 44 21 57T79 105T121 217L391 1233Q408 1298 408 1331Q408 1362 395 1378T352 1400T270 1409L281
1450Q394 1444 643 1444Q875 1444 1028 1450L1018 1409Q943 1406 907 1393T849 1345T807 1233L781 1135Q858 1137 907 1137Q1084 1137 1202 1099T1379 992T1438 827Q1438 669 1326 543T1013 344T551 270L537 217Q519 147 519 117ZM705 311T805 389T955 593T1006
860Q1006 928 983 982T914 1067T807 1098H771L562 311H563Q705 311 805 389Z" />
<glyph unicode="&#xdf;" glyph-name="germandbls" horiz-adv-x="1481" d="M99 -354T-117 -385L164 635Q233 890 346 1030T603 1222T934 1274Q1159 1274 1274 1214T1389 1034Q1389 894 1241 808T844 684Q1034 670 1152 622T1321 504T1372 354Q1372 245 1289 157T1067
20T766 -29Q631 -29 566 11T500 150Q500 211 524 266T596 355T709 389Q779 389 821 349T864 240Q864 186 837 137T764 53T662 8Q690 4 719 4Q788 4 846 51T937 177T971 350Q971 441 946 513T882 626T803 666Q728 641 698 641Q677 641 666 648T655 666Q655 680 671
693T719 707Q737 707 815 688Q886 745 926 864T967 1118Q967 1188 952 1215T891 1243Q823 1243 768 1186T678 1008L297 -352Q99 -354 -117 -385Z" />
<glyph unicode="&#xe0;" glyph-name="agrave" horiz-adv-x="1360" d="M1131 104T1159 74T1223 41L1212 0Q1094 6 866 6Q629 6 518 0L528 41Q591 44 629 55T687 94T707 173Q707 199 705 213L674 467H258L98 268Q44 201 44 155Q44 66 236 41L227 0Q45 6 -63 6Q-133
6 -197 0L-188 41Q-149 59 -117 84T-47 154T61 285L842 1260Q894 1256 919 1256Q945 1256 995 1260L1122 172Q1131 104 1159 74ZM619 917L291 508H669L619 917ZM979 1401T918 1413T764 1441T625 1481Q588 1500 566 1533T544 1603Q544 1631 557 1657Q575 1694 610
1713T685 1733Q721 1733 750 1718Q785 1702 810 1678T906 1569T1073 1401L1059 1376Q979 1401 918 1413Z" />
<glyph unicode="&#xe1;" glyph-name="aacute" horiz-adv-x="1360" d="M1131 104T1159 74T1223 41L1212 0Q1094 6 866 6Q629 6 518 0L528 41Q591 44 629 55T687 94T707 173Q707 199 705 213L674 467H258L98 268Q44 201 44 155Q44 66 236 41L227 0Q45 6 -63 6Q-133
6 -197 0L-188 41Q-149 59 -117 84T-47 154T61 285L842 1260Q894 1256 919 1256Q945 1256 995 1260L1122 172Q1131 104 1159 74ZM619 917L291 508H669L619 917ZM848 1475T930 1563T1052 1690T1145 1757Q1188 1781 1239 1781Q1327 1781 1366 1710Q1381 1681 1381
1655Q1381 1579 1274 1520Q1234 1498 1186 1484T1012 1441T778 1376L764 1401Q848 1475 930 1563Z" />
<glyph unicode="&#xe2;" glyph-name="acircumflex" horiz-adv-x="1360" d="M1131 104T1159 74T1223 41L1212 0Q1094 6 866 6Q629 6 518 0L528 41Q591 44 629 55T687 94T707 173Q707 199 705 213L674 467H258L98 268Q44 201 44 155Q44 66 236 41L227 0Q45 6 -63
6Q-133 6 -197 0L-188 41Q-149 59 -117 84T-47 154T61 285L842 1260Q894 1256 919 1256Q945 1256 995 1260L1122 172Q1131 104 1159 74ZM619 917L291 508H669L619 917ZM1202 1396T1101 1421T904 1483Q705 1416 443 1372L433 1401Q615 1459 777 1554T1037 1753H1074Q1114
1628 1177 1547T1358 1401L1350 1372Q1202 1396 1101 1421Z" />
<glyph unicode="&#xe3;" glyph-name="atilde" horiz-adv-x="1360" d="M1131 104T1159 74T1223 41L1212 0Q1094 6 866 6Q629 6 518 0L528 41Q591 44 629 55T687 94T707 173Q707 199 705 213L674 467H258L98 268Q44 201 44 155Q44 66 236 41L227 0Q45 6 -63 6Q-133
6 -197 0L-188 41Q-149 59 -117 84T-47 154T61 285L842 1260Q894 1256 919 1256Q945 1256 995 1260L1122 172Q1131 104 1159 74ZM619 917L291 508H669L619 917ZM486 1572T590 1654T812 1737Q889 1737 940 1716T1071 1641T1223 1587Q1272 1587 1312 1615T1391 1706L1428
1696Q1366 1527 1261 1445T1039 1362Q962 1362 911 1383T780 1457T627 1511Q579 1511 539 1484T459 1393L423 1403Q486 1572 590 1654Z" />
<glyph unicode="&#xe4;" glyph-name="adieresis" horiz-adv-x="1360" d="M1131 104T1159 74T1223 41L1212 0Q1094 6 866 6Q629 6 518 0L528 41Q591 44 629 55T687 94T707 173Q707 199 705 213L674 467H258L98 268Q44 201 44 155Q44 66 236 41L227 0Q45 6 -63 6Q-133
6 -197 0L-188 41Q-149 59 -117 84T-47 154T61 285L842 1260Q894 1256 919 1256Q945 1256 995 1260L1122 172Q1131 104 1159 74ZM619 917L291 508H669L619 917ZM503 1579T531 1624T604 1690T705 1712Q784 1712 821 1670T859 1552Q859 1485 830 1441T755 1377T654
1356Q576 1356 540 1397T503 1511Q503 1579 531 1624ZM1031 1611T1089 1661T1234 1712Q1312 1712 1349 1670T1387 1552Q1387 1485 1358 1441T1283 1377T1183 1356Q1105 1356 1068 1397T1031 1511Q1031 1611 1089 1661Z" />
<glyph unicode="&#xe5;" glyph-name="aring" horiz-adv-x="1360" d="M1131 104T1159 74T1223 41L1212 0Q1094 6 866 6Q629 6 518 0L528 41Q591 44 629 55T687 94T707 173Q707 199 705 213L674 467H258L98 268Q44 201 44 155Q44 66 236 41L227 0Q45 6 -63 6Q-133
6 -197 0L-188 41Q-149 59 -117 84T-47 154T61 285L842 1260Q894 1256 919 1256Q945 1256 995 1260L1122 172Q1131 104 1159 74ZM619 917L291 508H669L619 917ZM1051 1731T1100 1709T1178 1644T1207 1548Q1207 1485 1169 1432T1068 1347T934 1315Q875 1315 828
1337T753 1401T725 1499Q725 1563 760 1616T856 1700T990 1731Q1051 1731 1100 1709ZM998 1358T1046 1383T1124 1451T1154 1544Q1154 1590 1129 1623T1065 1672T984 1688Q930 1688 883 1662T809 1591T781 1499Q781 1455 804 1423T865 1375T945 1358Q998 1358 1046
1383Z" />
<glyph unicode="&#xe6;" glyph-name="ae" horiz-adv-x="1876" d="M1189 1239T1493 1239Q1788 1239 1917 1245Q1883 1152 1839 1004Q1825 953 1812 877H1767Q1782 963 1782 1021Q1782 1117 1740 1157T1602 1198H1513Q1441 1198 1406 1187T1350 1141T1309 1028L1207
647H1319Q1377 647 1415 677T1477 753T1530 877H1575Q1549 798 1532 729T1505 627Q1483 545 1452 377H1407Q1407 397 1412 440T1417 503Q1417 549 1395 575T1311 606H1196L1092 217Q1074 147 1074 117Q1074 88 1087 73T1129 53T1208 47H1317Q1416 47 1479 81T1588
192T1683 410H1729Q1712 368 1686 262Q1654 154 1632 0Q1493 6 1169 6Q694 6 457 0L465 41Q539 44 575 57T634 105T676 217L780 606H436L70 193Q11 126 11 96Q11 51 137 41V0Q81 6 -39 6Q-127 6 -176 0V41Q-113 44 0 172L890 1179Q864 1200 772 1204L782 1245L945
1242L1044 1354H1098L998 1241Q1189 1239 1493 1239ZM893 1028Q910 1093 910 1126Q910 1136 909 1141L472 647H791L893 1028Z" />
<glyph unicode="&#xe7;" glyph-name="ccedilla" horiz-adv-x="1409" d="M1100 44T1100 70Q1100 122 1074 122Q1058 122 1032 104Q939 39 850 5T643 -29Q457 -29 323 21T117 167T45 401Q45 608 165 811T506 1144T1008 1274Q1119 1274 1188 1239T1311 1141Q1326
1123 1340 1123Q1378 1123 1423 1245H1468Q1404 1056 1335 774H1290Q1303 888 1303 932Q1303 1010 1270 1077Q1233 1155 1159 1196T989 1237Q854 1237 736 1102T546 761T475 360Q475 191 525 100T662 8Q756 8 856 50T1030 168Q1084 224 1123 294T1214 492H1260Q1163
137 1139 0H1094Q1100 44 1100 70ZM688 -92T753 -92Q826 -92 868 -119T911 -201Q911 -265 858 -306T721 -366T540 -385Q471 -385 408 -374T303 -348L315 -315Q338 -321 389 -328T481 -336Q649 -336 649 -250Q649 -203 592 -203Q560 -203 528 -217L628 12H684L626
-117Q688 -92 753 -92Z" />
<glyph unicode="&#xe8;" glyph-name="egrave" horiz-adv-x="1319" d="M461 1239T936 1239Q1231 1239 1360 1245Q1309 1114 1282 1004Q1291 1041 1255 877H1210Q1213 910 1213 939Q1213 1198 963 1198H956Q884 1198 849 1187T793 1141T752 1028L650 647H680Q744
647 803 679T906 763T973 877H1018Q992 798 975 729T948 627Q925 540 895 377H850Q850 431 831 483T768 570T651 606H639L535 217Q517 147 517 117Q517 88 530 73T572 53T651 47H678Q779 47 859 82T1005 196T1126 410H1171Q1158 375 1128 262Q1096 145 1075 0Q936
6 612 6Q137 6 -100 0L-92 41Q-18 44 18 57T77 105T119 217L336 1028Q353 1093 353 1126Q353 1157 339 1173T297 1195T215 1204L225 1245Q461 1239 936 1239ZM897 1401T836 1413T682 1441T543 1481Q506 1500 484 1533T462 1603Q462 1631 475 1657Q493 1694 528
1713T603 1733Q639 1733 668 1718Q703 1702 728 1678T824 1569T991 1401L977 1376Q897 1401 836 1413Z" />
<glyph unicode="&#xe9;" glyph-name="eacute" horiz-adv-x="1319" d="M461 1239T936 1239Q1231 1239 1360 1245Q1309 1114 1282 1004Q1291 1041 1255 877H1210Q1213 910 1213 939Q1213 1198 963 1198H956Q884 1198 849 1187T793 1141T752 1028L650 647H680Q744
647 803 679T906 763T973 877H1018Q992 798 975 729T948 627Q925 540 895 377H850Q850 431 831 483T768 570T651 606H639L535 217Q517 147 517 117Q517 88 530 73T572 53T651 47H678Q779 47 859 82T1005 196T1126 410H1171Q1158 375 1128 262Q1096 145 1075 0Q936
6 612 6Q137 6 -100 0L-92 41Q-18 44 18 57T77 105T119 217L336 1028Q353 1093 353 1126Q353 1157 339 1173T297 1195T215 1204L225 1245Q461 1239 936 1239ZM766 1475T848 1563T970 1690T1063 1757Q1106 1781 1157 1781Q1245 1781 1284 1710Q1299 1681 1299 1655Q1299
1579 1192 1520Q1152 1498 1104 1484T930 1441T696 1376L682 1401Q766 1475 848 1563Z" />
<glyph unicode="&#xea;" glyph-name="ecircumflex" horiz-adv-x="1319" d="M461 1239T936 1239Q1231 1239 1360 1245Q1309 1114 1282 1004Q1291 1041 1255 877H1210Q1213 910 1213 939Q1213 1198 963 1198H956Q884 1198 849 1187T793 1141T752 1028L650 647H680Q744
647 803 679T906 763T973 877H1018Q992 798 975 729T948 627Q925 540 895 377H850Q850 431 831 483T768 570T651 606H639L535 217Q517 147 517 117Q517 88 530 73T572 53T651 47H678Q779 47 859 82T1005 196T1126 410H1171Q1158 375 1128 262Q1096 145 1075 0Q936
6 612 6Q137 6 -100 0L-92 41Q-18 44 18 57T77 105T119 217L336 1028Q353 1093 353 1126Q353 1157 339 1173T297 1195T215 1204L225 1245Q461 1239 936 1239ZM1120 1396T1019 1421T822 1483Q623 1416 361 1372L351 1401Q533 1459 695 1554T955 1753H992Q1032 1628
1095 1547T1276 1401L1268 1372Q1120 1396 1019 1421Z" />
<glyph unicode="&#xeb;" glyph-name="edieresis" horiz-adv-x="1319" d="M461 1239T936 1239Q1231 1239 1360 1245Q1309 1114 1282 1004Q1291 1041 1255 877H1210Q1213 910 1213 939Q1213 1198 963 1198H956Q884 1198 849 1187T793 1141T752 1028L650 647H680Q744
647 803 679T906 763T973 877H1018Q992 798 975 729T948 627Q925 540 895 377H850Q850 431 831 483T768 570T651 606H639L535 217Q517 147 517 117Q517 88 530 73T572 53T651 47H678Q779 47 859 82T1005 196T1126 410H1171Q1158 375 1128 262Q1096 145 1075 0Q936
6 612 6Q137 6 -100 0L-92 41Q-18 44 18 57T77 105T119 217L336 1028Q353 1093 353 1126Q353 1157 339 1173T297 1195T215 1204L225 1245Q461 1239 936 1239ZM421 1579T449 1624T522 1690T623 1712Q702 1712 739 1670T777 1552Q777 1485 748 1441T673 1377T572
1356Q494 1356 458 1397T421 1511Q421 1579 449 1624ZM949 1611T1007 1661T1152 1712Q1230 1712 1267 1670T1305 1552Q1305 1485 1276 1441T1201 1377T1101 1356Q1023 1356 986 1397T949 1511Q949 1611 1007 1661Z" />
<glyph unicode="&#xec;" glyph-name="igrave" horiz-adv-x="860" d="M517 147T517 117Q517 87 530 72T573 50T655 41L647 0Q515 6 264 6Q22 6 -98 0L-88 41Q-17 44 19 57T77 105T119 217L334 1028Q351 1093 351 1126Q351 1157 337 1173T295 1195T213 1204L223
1245Q337 1239 586 1239Q816 1239 971 1245L961 1204Q885 1201 849 1188T791 1140T750 1028L535 217Q517 147 517 117ZM706 1401T645 1413T491 1441T352 1481Q315 1500 293 1533T271 1603Q271 1631 284 1657Q302 1694 337 1713T412 1733Q448 1733 477 1718Q512
1702 537 1678T633 1569T800 1401L786 1376Q706 1401 645 1413Z" />
<glyph unicode="&#xed;" glyph-name="iacute" horiz-adv-x="860" d="M517 147T517 117Q517 87 530 72T573 50T655 41L647 0Q515 6 264 6Q22 6 -98 0L-88 41Q-17 44 19 57T77 105T119 217L334 1028Q351 1093 351 1126Q351 1157 337 1173T295 1195T213 1204L223
1245Q337 1239 586 1239Q816 1239 971 1245L961 1204Q885 1201 849 1188T791 1140T750 1028L535 217Q517 147 517 117ZM575 1475T657 1563T779 1690T872 1757Q915 1781 966 1781Q1054 1781 1093 1710Q1108 1681 1108 1655Q1108 1579 1001 1520Q961 1498 913 1484T739
1441T505 1376L491 1401Q575 1475 657 1563Z" />
<glyph unicode="&#xee;" glyph-name="icircumflex" horiz-adv-x="860" d="M517 147T517 117Q517 87 530 72T573 50T655 41L647 0Q515 6 264 6Q22 6 -98 0L-88 41Q-17 44 19 57T77 105T119 217L334 1028Q351 1093 351 1126Q351 1157 337 1173T295 1195T213 1204L223
1245Q337 1239 586 1239Q816 1239 971 1245L961 1204Q885 1201 849 1188T791 1140T750 1028L535 217Q517 147 517 117ZM929 1396T828 1421T631 1483Q432 1416 170 1372L160 1401Q342 1459 504 1554T764 1753H801Q841 1628 904 1547T1085 1401L1077 1372Q929 1396
828 1421Z" />
<glyph unicode="&#xef;" glyph-name="idieresis" horiz-adv-x="860" d="M517 147T517 117Q517 87 530 72T573 50T655 41L647 0Q515 6 264 6Q22 6 -98 0L-88 41Q-17 44 19 57T77 105T119 217L334 1028Q351 1093 351 1126Q351 1157 337 1173T295 1195T213 1204L223
1245Q337 1239 586 1239Q816 1239 971 1245L961 1204Q885 1201 849 1188T791 1140T750 1028L535 217Q517 147 517 117ZM230 1579T258 1624T331 1690T432 1712Q511 1712 548 1670T586 1552Q586 1485 557 1441T482 1377T381 1356Q303 1356 267 1397T230 1511Q230
1579 258 1624ZM758 1611T816 1661T961 1712Q1039 1712 1076 1670T1114 1552Q1114 1485 1085 1441T1010 1377T910 1356Q832 1356 795 1397T758 1511Q758 1611 816 1661Z" />
<glyph unicode="&#xf0;" glyph-name="eth" horiz-adv-x="1655" d="M377 1238T522 1238L594 1239Q771 1245 897 1245Q1260 1245 1432 1129T1604 776Q1604 563 1476 386T1111 104T567 0Q532 0 433 3T240 6Q25 6 -92 0L-86 41Q-16 44 19 57T77 105T119 217L338 1028Q356
1098 356 1124Q356 1166 325 1184T215 1204L221 1245Q377 1238 522 1238ZM514 131T514 99Q514 63 535 50T608 37Q786 37 916 147T1114 429T1182 786Q1182 921 1146 1015T1041 1159T881 1208Q841 1208 821 1196T785 1148T750 1032L535 213Q514 131 514 99ZM53 603L66
654H950L938 603H53Z" />
<glyph unicode="&#xf1;" glyph-name="ntilde" horiz-adv-x="1896" d="M1480 1053T1599 1208Q1697 1339 1821 1339Q1892 1339 1946 1310T2030 1231T2060 1120Q2060 1056 2030 1007T1947 932T1831 905Q1747 905 1698 945T1649 1057Q1649 1117 1676 1166T1752 1246T1862
1288Q1843 1305 1810 1305Q1756 1305 1716 1276T1636 1192Q1455 936 1225 -10H1180L608 926Q416 133 291 -23Q242 -83 192 -117T72 -152Q1 -152 -53 -123T-138 -44T-168 68Q-168 132 -138 181T-55 256T61 283Q145 283 194 243T244 131Q244 71 217 22T141 -58T31
-100Q45 -115 82 -115Q131 -115 177 -85T258 -2Q335 112 420 392T606 1107Q609 1147 596 1166T550 1193T449 1204L459 1245Q524 1239 641 1239Q792 1239 909 1245L1329 537Q1480 1053 1599 1208ZM778 1572T882 1654T1104 1737Q1181 1737 1232 1716T1363 1641T1515
1587Q1564 1587 1604 1615T1683 1706L1720 1696Q1658 1527 1553 1445T1331 1362Q1254 1362 1203 1383T1072 1457T919 1511Q871 1511 831 1484T751 1393L715 1403Q778 1572 882 1654Z" />
<glyph unicode="&#xf2;" glyph-name="ograve" horiz-adv-x="1661" d="M492 -29T351 25T132 190T53 465Q53 650 173 839T508 1151T991 1274Q1179 1274 1320 1220T1539 1055T1618 780Q1618 595 1498 406T1163 94T680 -29Q492 -29 351 25ZM840 1237T731 1121T560
819T498 436Q498 215 551 112T698 8Q831 8 940 124T1112 426T1174 809Q1174 1030 1120 1133T973 1237Q840 1237 731 1121ZM1108 1401T1047 1413T893 1441T754 1481Q717 1500 695 1533T673 1603Q673 1631 686 1657Q704 1694 739 1713T814 1733Q850 1733 879 1718Q914
1702 939 1678T1035 1569T1202 1401L1188 1376Q1108 1401 1047 1413Z" />
<glyph unicode="&#xf3;" glyph-name="oacute" horiz-adv-x="1661" d="M492 -29T351 25T132 190T53 465Q53 650 173 839T508 1151T991 1274Q1179 1274 1320 1220T1539 1055T1618 780Q1618 595 1498 406T1163 94T680 -29Q492 -29 351 25ZM840 1237T731 1121T560
819T498 436Q498 215 551 112T698 8Q831 8 940 124T1112 426T1174 809Q1174 1030 1120 1133T973 1237Q840 1237 731 1121ZM977 1475T1059 1563T1181 1690T1274 1757Q1317 1781 1368 1781Q1456 1781 1495 1710Q1510 1681 1510 1655Q1510 1579 1403 1520Q1363 1498
1315 1484T1141 1441T907 1376L893 1401Q977 1475 1059 1563Z" />
<glyph unicode="&#xf4;" glyph-name="ocircumflex" horiz-adv-x="1661" d="M492 -29T351 25T132 190T53 465Q53 650 173 839T508 1151T991 1274Q1179 1274 1320 1220T1539 1055T1618 780Q1618 595 1498 406T1163 94T680 -29Q492 -29 351 25ZM840 1237T731 1121T560
819T498 436Q498 215 551 112T698 8Q831 8 940 124T1112 426T1174 809Q1174 1030 1120 1133T973 1237Q840 1237 731 1121ZM1331 1396T1230 1421T1033 1483Q834 1416 572 1372L562 1401Q744 1459 906 1554T1166 1753H1203Q1243 1628 1306 1547T1487 1401L1479 1372Q1331
1396 1230 1421Z" />
<glyph unicode="&#xf5;" glyph-name="otilde" horiz-adv-x="1661" d="M492 -29T351 25T132 190T53 465Q53 650 173 839T508 1151T991 1274Q1179 1274 1320 1220T1539 1055T1618 780Q1618 595 1498 406T1163 94T680 -29Q492 -29 351 25ZM840 1237T731 1121T560
819T498 436Q498 215 551 112T698 8Q831 8 940 124T1112 426T1174 809Q1174 1030 1120 1133T973 1237Q840 1237 731 1121ZM615 1572T719 1654T941 1737Q1018 1737 1069 1716T1200 1641T1352 1587Q1401 1587 1441 1615T1520 1706L1557 1696Q1495 1527 1390 1445T1168
1362Q1091 1362 1040 1383T909 1457T756 1511Q708 1511 668 1484T588 1393L552 1403Q615 1572 719 1654Z" />
<glyph unicode="&#xf6;" glyph-name="odieresis" horiz-adv-x="1661" d="M492 -29T351 25T132 190T53 465Q53 650 173 839T508 1151T991 1274Q1179 1274 1320 1220T1539 1055T1618 780Q1618 595 1498 406T1163 94T680 -29Q492 -29 351 25ZM840 1237T731 1121T560
819T498 436Q498 215 551 112T698 8Q831 8 940 124T1112 426T1174 809Q1174 1030 1120 1133T973 1237Q840 1237 731 1121ZM632 1579T660 1624T733 1690T834 1712Q913 1712 950 1670T988 1552Q988 1485 959 1441T884 1377T783 1356Q705 1356 669 1397T632 1511Q632
1579 660 1624ZM1160 1611T1218 1661T1363 1712Q1441 1712 1478 1670T1516 1552Q1516 1485 1487 1441T1412 1377T1312 1356Q1234 1356 1197 1397T1160 1511Q1160 1611 1218 1661Z" />
<glyph unicode="&#xf7;" glyph-name="divide" horiz-adv-x="1274" d="M704 1068T747 1101T836 1135Q875 1135 899 1112T923 1052Q923 1039 918 1022Q904 974 861 942T770 909Q732 909 709 931T685 990Q685 1004 690 1022Q704 1068 747 1101ZM1174 696H148L166
758H1192L1174 696ZM534 479T577 512T666 545Q705 545 729 522T753 463Q753 450 748 432Q734 384 691 351T600 317Q562 317 539 341T515 401Q515 414 520 432Q534 479 577 512Z" />
<glyph unicode="&#xf8;" glyph-name="oslash" horiz-adv-x="1661" d="M1488 1139T1553 1034T1618 780Q1618 595 1498 406T1163 94T680 -29Q457 -29 305 45L94 -160L59 -131L264 68Q53 196 53 465Q53 650 173 839T508 1151T991 1274Q1186 1274 1327 1217L1548 1448L1579
1421L1368 1198Q1488 1139 1553 1034ZM1111 1237T973 1237Q840 1237 731 1121T560 819T498 436Q498 333 510 254L1155 1027Q1111 1237 973 1237ZM567 8T698 8Q831 8 940 124T1112 426T1174 809Q1174 899 1164 971L521 199Q567 8 698 8Z" />
<glyph unicode="&#xf9;" glyph-name="ugrave" horiz-adv-x="1448" d="M1187 311T1061 162Q898 -29 590 -29Q307 -29 203 82Q163 123 145 170T127 282Q127 381 182 590L299 1028Q316 1093 316 1126Q316 1157 302 1173T260 1195T178 1204L190 1245Q310 1239 578
1239Q792 1239 936 1245L924 1204Q849 1201 813 1188T755 1141T713 1028L586 555Q532 355 532 238Q532 43 680 43Q895 43 1018 182T1208 573L1280 844Q1327 1017 1327 1077Q1327 1118 1311 1143T1261 1182T1167 1204L1180 1245Q1259 1239 1407 1239Q1528 1239 1599
1245L1587 1204Q1511 1191 1469 1161T1398 1069T1337 885L1262 596Q1187 311 1061 162ZM1026 1401T965 1413T811 1441T672 1481Q635 1500 613 1533T591 1603Q591 1631 604 1657Q622 1694 657 1713T732 1733Q768 1733 797 1718Q832 1702 857 1678T953 1569T1120
1401L1106 1376Q1026 1401 965 1413Z" />
<glyph unicode="&#xfa;" glyph-name="uacute" horiz-adv-x="1448" d="M1187 311T1061 162Q898 -29 590 -29Q307 -29 203 82Q163 123 145 170T127 282Q127 381 182 590L299 1028Q316 1093 316 1126Q316 1157 302 1173T260 1195T178 1204L190 1245Q310 1239 578
1239Q792 1239 936 1245L924 1204Q849 1201 813 1188T755 1141T713 1028L586 555Q532 355 532 238Q532 43 680 43Q895 43 1018 182T1208 573L1280 844Q1327 1017 1327 1077Q1327 1118 1311 1143T1261 1182T1167 1204L1180 1245Q1259 1239 1407 1239Q1528 1239 1599
1245L1587 1204Q1511 1191 1469 1161T1398 1069T1337 885L1262 596Q1187 311 1061 162ZM895 1475T977 1563T1099 1690T1192 1757Q1235 1781 1286 1781Q1374 1781 1413 1710Q1428 1681 1428 1655Q1428 1579 1321 1520Q1281 1498 1233 1484T1059 1441T825 1376L811
1401Q895 1475 977 1563Z" />
<glyph unicode="&#xfb;" glyph-name="ucircumflex" horiz-adv-x="1448" d="M1187 311T1061 162Q898 -29 590 -29Q307 -29 203 82Q163 123 145 170T127 282Q127 381 182 590L299 1028Q316 1093 316 1126Q316 1157 302 1173T260 1195T178 1204L190 1245Q310 1239
578 1239Q792 1239 936 1245L924 1204Q849 1201 813 1188T755 1141T713 1028L586 555Q532 355 532 238Q532 43 680 43Q895 43 1018 182T1208 573L1280 844Q1327 1017 1327 1077Q1327 1118 1311 1143T1261 1182T1167 1204L1180 1245Q1259 1239 1407 1239Q1528 1239
1599 1245L1587 1204Q1511 1191 1469 1161T1398 1069T1337 885L1262 596Q1187 311 1061 162ZM1249 1396T1148 1421T951 1483Q752 1416 490 1372L480 1401Q662 1459 824 1554T1084 1753H1121Q1161 1628 1224 1547T1405 1401L1397 1372Q1249 1396 1148 1421Z" />
<glyph unicode="&#xfc;" glyph-name="udieresis" horiz-adv-x="1448" d="M1187 311T1061 162Q898 -29 590 -29Q307 -29 203 82Q163 123 145 170T127 282Q127 381 182 590L299 1028Q316 1093 316 1126Q316 1157 302 1173T260 1195T178 1204L190 1245Q310 1239 578
1239Q792 1239 936 1245L924 1204Q849 1201 813 1188T755 1141T713 1028L586 555Q532 355 532 238Q532 43 680 43Q895 43 1018 182T1208 573L1280 844Q1327 1017 1327 1077Q1327 1118 1311 1143T1261 1182T1167 1204L1180 1245Q1259 1239 1407 1239Q1528 1239 1599
1245L1587 1204Q1511 1191 1469 1161T1398 1069T1337 885L1262 596Q1187 311 1061 162ZM550 1579T578 1624T651 1690T752 1712Q831 1712 868 1670T906 1552Q906 1485 877 1441T802 1377T701 1356Q623 1356 587 1397T550 1511Q550 1579 578 1624ZM1078 1611T1136
1661T1281 1712Q1359 1712 1396 1670T1434 1552Q1434 1485 1405 1441T1330 1377T1230 1356Q1152 1356 1115 1397T1078 1511Q1078 1611 1136 1661Z" />
<glyph unicode="&#xfd;" glyph-name="yacute" horiz-adv-x="1462" d="M917 863T977 970T1087 1139Q1138 1202 1202 1238T1333 1274Q1397 1274 1447 1243T1524 1157T1552 1036Q1552 965 1523 912T1442 829T1329 799Q1252 799 1207 844T1161 971Q1161 1032 1187
1084T1262 1173T1374 1223Q1357 1235 1321 1235Q1234 1235 1153 1151Q1010 1004 872 633L766 217Q749 151 749 118Q749 88 762 72T805 50T887 41L877 0Q748 6 498 6Q249 6 129 0L139 41Q215 44 252 57T310 106T350 217L431 530Q408 710 384 824T330 999T258 1059Q217
1059 195 991L162 897H117L168 1047Q205 1155 282 1214T479 1274Q598 1274 669 1231T782 1091T854 819L869 736Q917 863 977 970ZM848 1475T930 1563T1052 1690T1145 1757Q1188 1781 1239 1781Q1327 1781 1366 1710Q1381 1681 1381 1655Q1381 1579 1274 1520Q1234
1498 1186 1484T1012 1441T778 1376L764 1401Q848 1475 930 1563Z" />
<glyph unicode="&#xfe;" glyph-name="thorn" horiz-adv-x="1415" d="M517 147T517 117Q517 87 530 72T573 50T655 41L647 0Q515 6 264 6Q22 6 -98 0L-88 41Q-17 44 19 57T77 105T119 217L334 1028Q351 1093 351 1126Q351 1157 337 1173T295 1195T213 1204L223
1245Q337 1239 586 1239Q817 1239 971 1245L961 1204Q885 1201 849 1188T791 1140T750 1028L742 998L852 999Q1399 999 1399 723Q1399 595 1291 490T989 322T545 256L535 217Q517 147 517 117ZM698 300T790 375T925 557T967 762Q967 961 776 961H732L556 297Q698
300 790 375Z" />
<glyph unicode="&#xff;" glyph-name="ydieresis" horiz-adv-x="1462" d="M917 863T977 970T1087 1139Q1138 1202 1202 1238T1333 1274Q1397 1274 1447 1243T1524 1157T1552 1036Q1552 965 1523 912T1442 829T1329 799Q1252 799 1207 844T1161 971Q1161 1032 1187
1084T1262 1173T1374 1223Q1357 1235 1321 1235Q1234 1235 1153 1151Q1010 1004 872 633L766 217Q749 151 749 118Q749 88 762 72T805 50T887 41L877 0Q748 6 498 6Q249 6 129 0L139 41Q215 44 252 57T310 106T350 217L431 530Q408 710 384 824T330 999T258 1059Q217
1059 195 991L162 897H117L168 1047Q205 1155 282 1214T479 1274Q598 1274 669 1231T782 1091T854 819L869 736Q917 863 977 970ZM503 1579T531 1624T604 1690T705 1712Q784 1712 821 1670T859 1552Q859 1485 830 1441T755 1377T654 1356Q576 1356 540 1397T503
1511Q503 1579 531 1624ZM1031 1611T1089 1661T1234 1712Q1312 1712 1349 1670T1387 1552Q1387 1485 1358 1441T1283 1377T1183 1356Q1105 1356 1068 1397T1031 1511Q1031 1611 1089 1661Z" />
</font>
</defs>
</svg>
